<svg width="92" height="92" viewBox="0 0 92 92" fill="none" xmlns="http://www.w3.org/2000/svg">
<path d="M20.1866 17.0492L47.0911 7.3086C58.2173 3.28047 70.5468 9.05543 74.575 20.1816L80.257 35.8759C84.1491 46.6265 78.8897 58.4993 68.4941 62.9236L71.8805 72.2774C72.2608 73.3278 71.7136 74.4921 70.6621 74.8728C70.1588 75.055 69.6116 75.0287 69.12 74.7984L66.2555 73.4568C58.7311 69.9324 50.2862 69.5499 42.476 72.3775L40.4806 73.0999C29.3544 77.128 17.0249 71.3531 12.9967 60.2269L7.31474 44.5326C3.28548 33.4069 9.06156 21.0769 20.1866 17.0492Z" fill="#096BA3"/>
<g clip-path="url(#clip0)">
<path d="M60.152 43.2196L50.9106 44.1103L49.8775 41.3087C50.962 39.3349 51.2194 36.92 50.3809 34.6459L49.9104 33.3697C51.3506 32.6492 52.0515 30.941 51.4818 29.396C50.9121 27.851 49.2701 27.0061 47.7072 27.393L47.4787 26.7733C46.4967 24.11 43.6031 22.695 40.921 23.5079C40.0779 22.4879 38.6502 22.0578 37.3401 22.5409C36.03 23.0239 35.2236 24.2781 35.2441 25.6011C32.6763 26.724 31.3939 29.6787 32.376 32.342L32.6045 32.9617C31.1644 33.6819 30.4637 35.3905 31.0335 36.9358C31.6033 38.4811 33.2453 39.3254 34.8084 38.9382L35.279 40.2144C36.1175 42.4885 37.8811 44.1584 39.9877 44.9556L41.0206 47.757L33.4131 53.079C31.3944 54.4911 30.6107 56.993 31.4629 59.3041L32.4791 62.0601C32.6832 62.6137 33.2974 62.897 33.851 62.6929C34.4047 62.4887 34.6879 61.8745 34.4838 61.3209L33.4676 58.5649C32.9562 57.1781 33.4264 55.6772 34.6378 54.8299L35.0265 54.5579L37.1565 60.3348C37.3607 60.8884 37.9749 61.1717 38.5285 60.9676C39.0821 60.7634 39.3654 60.1493 39.1613 59.5956L36.8368 53.2915L38.6472 52.0252L40.2299 56.3176C40.434 56.8713 41.0482 57.1545 41.6018 56.9504L56.4367 51.4804C56.9904 51.2762 57.2736 50.6621 57.0695 50.1084L55.4868 45.816L57.6858 45.6039L60.0104 51.9083C60.2145 52.4619 60.8287 52.7452 61.3824 52.5411C61.936 52.3369 62.2193 51.7227 62.0151 51.1691L59.8849 45.392L60.3572 45.3465C61.8286 45.2046 63.1606 46.041 63.672 47.4278L64.6882 50.1838C64.8923 50.7374 65.5065 51.0207 66.0601 50.8165C66.6138 50.6124 66.897 49.9982 66.6929 49.4446L65.6767 46.6886C64.8245 44.3775 62.6042 42.9832 60.152 43.2196ZM33.0382 36.1966C32.8344 35.644 33.1181 35.0285 33.6709 34.8247L34.3392 34.5783C34.8928 34.3742 35.1761 33.76 34.9719 33.2063L34.3807 31.6028C33.8278 30.1035 34.471 28.451 35.8248 27.6956L36.3042 28.9956C36.5083 29.5492 37.1225 29.8325 37.6761 29.6283C38.2298 29.4242 38.513 28.81 38.3089 28.2564L37.4468 25.9183C37.4467 25.9181 37.4466 25.9178 37.4465 25.9175C37.2427 25.3649 37.5267 24.7494 38.0793 24.5456C38.6319 24.3418 39.2474 24.6258 39.4512 25.1784L39.4517 25.1797L40.3136 27.5172C40.5177 28.0708 41.1322 28.354 41.6855 28.15C42.2392 27.9458 42.5225 27.3316 42.3183 26.778L41.839 25.4781C43.3591 25.1737 44.9212 26.0134 45.474 27.5125L46.0652 29.116C46.2694 29.6696 46.8835 29.9529 47.4372 29.7487L48.1052 29.5024C48.6578 29.2987 49.2733 29.5826 49.4771 30.1352C49.6809 30.6878 49.3969 31.3034 48.8443 31.5071L34.4101 36.8294C33.8573 37.0333 33.2419 36.7492 33.0382 36.1966ZM37.2837 39.4752L36.8202 38.218L47.9129 34.1279L48.3765 35.385C49.5041 38.4432 47.9334 41.8488 44.8752 42.9765C41.8167 44.1042 38.4114 42.5334 37.2837 39.4752ZM45.6144 44.9812C46.6567 44.5968 47.5721 44.0179 48.3348 43.3008L49.1695 45.5645C48.658 46.6228 47.7547 47.4493 46.6435 47.859C45.5539 48.2607 44.3663 48.2299 43.309 47.7871L42.4544 45.4694C43.4997 45.5195 44.5718 45.3656 45.6144 44.9812ZM54.6952 49.8453L41.865 54.5761L40.4574 50.7588L42.1218 49.5944C43.7619 50.3985 45.6565 50.5002 47.3827 49.8637C49.107 49.2279 50.4923 47.9097 51.2162 46.2275L53.2876 46.028L54.6952 49.8453Z" fill="white"/>
</g>
<defs>
<clipPath id="clip0">
<rect width="36.4656" height="36.4656" fill="white" transform="translate(20.2332 28.8486) rotate(-20.2402)"/>
</clipPath>
</defs>
</svg>
