<svg width="96" height="96" viewBox="0 0 96 96" fill="none" xmlns="http://www.w3.org/2000/svg">
<path d="M44.9177 9.49575L19.2552 22.1516C8.64266 27.3853 4.26646 40.2778 9.50016 50.8903L16.8827 65.8601C21.9398 76.1144 34.1458 80.546 44.5379 76.1135L48.938 85.0355C49.4321 86.0374 50.6508 86.4493 51.6538 85.9547C52.1339 85.7179 52.4939 85.3051 52.6684 84.791L53.6851 81.7958C56.3558 73.9278 61.93 67.5723 69.3796 63.8984L71.2829 62.9598C81.8954 57.7261 86.2716 44.8336 81.0379 34.2211L73.6553 19.2513C68.4227 8.63824 55.5291 4.26257 44.9177 9.49575Z" fill="#096BA3"/>
<g clip-path="url(#clip0)">
<path d="M37.7274 65.1992L54.7113 56.8043C55.2286 56.5486 55.4406 55.9221 55.1849 55.4048L54.1973 53.4067C53.5938 52.1858 52.296 51.5317 51.015 51.6839L50.4125 50.4651C49.6797 48.9824 47.8772 48.3726 46.3945 49.1055L36.6617 53.9163C35.1791 54.6491 34.5689 56.4515 35.3018 57.9341L35.9042 59.1529C35.0053 60.0783 34.7368 61.5066 35.3403 62.7275L36.3279 64.7255C36.5836 65.2429 37.2101 65.4549 37.7274 65.1992ZM37.5876 55.7894L47.3204 50.9786C47.7702 50.7563 48.3171 50.9412 48.5394 51.391L49.0622 52.4488L37.698 58.0659L37.1752 57.0082C36.9528 56.5584 37.1379 56.0117 37.5876 55.7894ZM37.2134 61.8017C36.9581 61.2851 37.1707 60.6574 37.6871 60.4021L50.9244 53.8591C51.441 53.6038 52.0689 53.816 52.3242 54.3326L52.8489 55.3941L37.7381 62.8631L37.2134 61.8017Z" fill="white"/>
<path d="M41.4156 47.8593C42.9545 48.634 44.8452 48.0175 45.6247 46.4693C46.1438 45.4381 46.0371 44.2539 45.4496 43.3491C46.1872 42.814 46.8547 42.2051 47.4454 41.5372L61.9717 48.8501C63.5112 49.6254 65.4015 49.0076 66.1807 47.4601C66.9577 45.9164 66.3342 44.0282 64.7904 43.2511L50.2644 35.938C50.4488 35.066 50.5404 34.1676 50.5311 33.2566C51.6209 33.189 52.6282 32.5578 53.1414 31.5381C53.9186 29.9944 53.2951 28.1062 51.7514 27.329L44.2858 23.5706C42.7421 22.7935 40.854 23.4172 40.0768 24.9609C39.5577 25.9921 39.6643 27.1761 40.2517 28.0808C37.0197 30.4265 35.1303 34.1789 35.1703 38.1722C34.0826 38.2397 33.0776 38.8639 32.5599 39.8918C31.781 41.4392 32.4026 43.322 33.95 44.1009L41.4156 47.8593ZM49.6476 37.967L51.7194 39.01L50.7797 40.8763L48.708 39.8336C49.0737 39.2392 49.3878 38.6147 49.6476 37.967ZM64.3142 46.5205C64.0551 47.0352 63.4258 47.243 62.9111 46.9839L52.646 41.816L53.5857 39.9497L63.8507 45.1174C64.3654 45.3765 64.573 46.0059 64.3142 46.5205ZM41.9434 25.9005C42.2032 25.3843 42.8334 25.179 43.3465 25.4371L50.8118 29.1956C51.3264 29.4544 51.5344 30.0839 51.2751 30.5984C51.0157 31.1142 50.3882 31.3215 49.8723 31.0618L42.4067 27.3034C41.892 27.0443 41.6842 26.415 41.9434 25.9005ZM41.9821 29.4289C42.6541 29.7674 47.7344 32.3251 48.4175 32.6688C48.6751 36.408 46.8773 39.9803 43.7195 42.001L37.284 38.7608C37.026 35.0173 38.8214 31.4516 41.9821 29.4289ZM34.4265 40.8314C34.6853 40.3169 35.3125 40.1079 35.8293 40.3681L43.2949 44.1265C43.2949 44.1265 43.2949 44.1265 43.295 44.1267C43.8094 44.3857 44.0172 45.015 43.7584 45.5295C43.4992 46.044 42.8699 46.2519 42.3553 45.993L34.8897 42.2346C34.374 41.9748 34.1668 41.3474 34.4265 40.8314Z" fill="white"/>
</g>
<defs>
<clipPath id="clip0">
<rect width="35.6605" height="35.6605" fill="white" transform="translate(20.9893 33.6937) rotate(-26.3025)"/>
</clipPath>
</defs>
</svg>
