<svg width="106" height="106" viewBox="0 0 106 106" fill="none" xmlns="http://www.w3.org/2000/svg">
<path d="M81.1847 16.3827L48.5077 7.02117C34.9944 3.14977 20.8502 10.9944 16.9788 24.5077L11.5179 43.5693C7.7772 56.6264 14.9738 70.2712 27.6535 74.6713L24.3988 86.032C24.0333 87.3078 24.7763 88.6433 26.0534 89.0092C26.6647 89.1843 27.311 89.1087 27.8751 88.7959L31.1611 86.9734C39.793 82.186 49.7707 81.0474 59.2565 83.765L61.6801 84.4593C75.1933 88.3307 89.3376 80.4861 93.209 66.9728L98.6699 47.9112C102.543 34.3983 94.6966 20.2537 81.1847 16.3827Z" fill="#096BA3"/>
<g clip-path="url(#clip0)">
<path d="M45.3085 28.6837C45.535 28.7473 45.7837 28.7177 45.9887 28.6024C46.1942 28.4872 46.3489 28.2903 46.4125 28.0638C46.4761 27.8372 46.4465 27.5889 46.331 27.3835C46.216 27.1783 46.0192 27.0233 45.7926 26.9597C45.5661 26.8961 45.3174 26.9259 45.1124 27.0413C44.9068 27.1565 44.7522 27.3531 44.6886 27.5796C44.625 27.8062 44.6545 28.0548 44.7701 28.2601C44.8851 28.4653 45.0819 28.62 45.3085 28.6837Z" fill="white"/>
<path d="M48.5409 29.5914L54.273 31.2011C54.7492 31.3349 55.2433 31.0575 55.377 30.5813C55.5107 30.1053 55.2334 29.611 54.7571 29.4772L49.0251 27.8674C48.5488 27.7337 48.0547 28.0114 47.921 28.4873C47.7873 28.9636 48.0647 29.4576 48.5409 29.5914Z" fill="white"/>
<path d="M43.7592 34.2003L52.7236 36.7178C53.1999 36.8516 53.6939 36.5741 53.8277 36.0979C53.9613 35.6219 53.684 35.1276 53.2078 34.9939L44.2433 32.4763C43.7671 32.3426 43.2729 32.6203 43.1393 33.0962C43.0055 33.5725 43.2829 34.0665 43.7592 34.2003Z" fill="white"/>
<path d="M42.2099 39.7167L51.1743 42.2343C51.6505 42.368 52.1446 42.0906 52.2783 41.6144C52.412 41.1384 52.1347 40.6441 51.6584 40.5104L42.694 37.9928C42.2178 37.8591 41.7236 38.1367 41.59 38.6127C41.4562 39.0889 41.7336 39.583 42.2099 39.7167Z" fill="white"/>
<path d="M40.6608 45.2333L49.6252 47.7509C50.1015 47.8846 50.5955 47.6072 50.7293 47.131C50.8629 46.655 50.5856 46.1607 50.1094 46.027L41.1449 43.5094C40.6687 43.3757 40.1746 43.6533 40.0409 44.1293C39.9071 44.6055 40.1845 45.0996 40.6608 45.2333Z" fill="white"/>
<path d="M49.1799 52.6476C49.3136 52.1716 49.0363 51.6773 48.5601 51.5436L39.5956 49.026C39.1194 48.8923 38.6252 49.1699 38.4916 49.6459C38.3578 50.1221 38.6352 50.6162 39.1115 50.7499L48.0759 53.2675C48.5521 53.4012 49.0462 53.1238 49.1799 52.6476Z" fill="white"/>
<path d="M62.4452 32.5664C62.3114 33.0427 62.5891 33.5368 63.0651 33.6705L72.0295 36.188C72.5058 36.3218 72.9998 36.0444 73.1336 35.5681C73.2672 35.0922 72.9899 34.5978 72.5137 34.4641L63.5492 31.9465C63.0733 31.8129 62.5789 32.0905 62.4452 32.5664Z" fill="white"/>
<path d="M70.9646 39.9806L62.0001 37.463C61.5242 37.3294 61.0298 37.6069 60.8961 38.0829C60.7624 38.5591 61.04 39.0533 61.516 39.1869L70.4805 41.7045C70.9567 41.8382 71.4507 41.5608 71.5845 41.0846C71.7182 40.6086 71.4408 40.1143 70.9646 39.9806Z" fill="white"/>
<path d="M69.4153 45.4972L60.4508 42.9796C59.9749 42.846 59.4805 43.1235 59.3468 43.5995C59.2131 44.0757 59.4907 44.5699 59.9667 44.7035L68.9311 47.2211C69.4074 47.3548 69.9014 47.0774 70.0352 46.6012C70.1688 46.1252 69.8915 45.6309 69.4153 45.4972Z" fill="white"/>
<path d="M67.866 51.0138L58.9015 48.4962C58.4255 48.3626 57.9311 48.6401 57.7975 49.1161C57.6637 49.5924 57.9414 50.0865 58.4174 50.2202L67.3818 52.7377C67.8581 52.8715 68.3521 52.5941 68.4859 52.1178C68.6195 51.6418 68.3422 51.1475 67.866 51.0138Z" fill="white"/>
<path d="M66.3166 56.5304L57.3522 54.0128C56.8762 53.8792 56.3818 54.1568 56.2482 54.6327C56.1144 55.109 56.3921 55.6031 56.8681 55.7368L65.8325 58.2543C66.3087 58.3881 66.8028 58.1106 66.9365 57.6344C67.0702 57.1584 66.7929 56.6641 66.3166 56.5304Z" fill="white"/>
<path d="M80.2847 36.9254L77.6989 36.1992L78.764 32.4065C78.8976 31.9306 78.6203 31.4362 78.1441 31.3025L65.5624 27.7691C63.4896 27.187 61.3151 27.6326 59.6615 28.9014C58.9102 26.9573 57.2856 25.4447 55.2128 24.8626L42.6311 21.3291C42.1549 21.1954 41.6607 21.4731 41.5271 21.949L40.462 25.7417L37.8761 25.0155C37.3998 24.8817 36.9057 25.1594 36.772 25.6354L28.1059 56.4937C27.9721 56.9699 28.2495 57.464 28.7257 57.5977L58.4921 65.9572C58.9683 66.091 59.4624 65.8136 59.5961 65.3373C59.7298 64.8614 59.4525 64.3671 58.9762 64.2333L51.2037 62.0505C51.2055 62.0484 51.2073 62.046 51.2089 62.0435C51.2104 62.0422 51.212 62.0409 51.2129 62.0394C52.4507 60.4748 54.4915 59.812 56.412 60.3514L68.9938 63.8848C69.47 64.0185 69.964 63.7411 70.0978 63.2649L77.2147 37.9231L78.9386 38.4073L70.7566 67.5417L66.0233 66.2124C65.5471 66.0787 65.053 66.3563 64.9193 66.8323C64.7856 67.3085 65.063 67.8026 65.5392 67.9363L71.1344 69.5077C71.6107 69.6414 72.1047 69.364 72.2385 68.8878L80.9046 38.0294C81.0383 37.5535 80.761 37.0591 80.2847 36.9254ZM43.0089 23.2951L54.7287 26.5865C56.5935 27.1102 57.9651 28.6604 58.2649 30.563L50.398 58.5752C49.5287 57.2105 48.1755 56.1783 46.5467 55.7209L34.8269 52.4296L43.0089 23.2951ZM38.2539 26.9815L39.9778 27.4656L32.8609 52.8074C32.7272 53.2836 33.0046 53.7777 33.4808 53.9114L46.0625 57.4448C47.9831 57.9842 49.3804 59.6126 49.6226 61.5928C49.6227 61.5946 49.6233 61.5965 49.624 61.5984C49.624 61.6013 49.6243 61.6043 49.6247 61.6071L30.0719 56.1159L38.2539 26.9815ZM68.6159 61.9188L56.8962 58.6274C55.2673 58.17 53.5746 58.3467 52.1219 59.0594L59.9888 31.0471C61.2352 29.5788 63.2134 28.9693 65.0782 29.493L76.798 32.7844L68.6159 61.9188Z" fill="white"/>
<path d="M62.5248 65.2299C62.2983 65.1662 62.0496 65.1961 61.8446 65.3114C61.639 65.4266 61.4844 65.6232 61.4208 65.8498C61.3571 66.0763 61.3867 66.3249 61.5022 66.5303C61.6172 66.7355 61.8141 66.8902 62.0407 66.9538C62.2672 67.0174 62.5158 66.9879 62.7209 66.8725C62.9264 66.7573 63.0811 66.5604 63.1447 66.3339C63.2083 66.1074 63.1787 65.859 63.0632 65.6536C62.9482 65.4484 62.7514 65.2935 62.5248 65.2299Z" fill="white"/>
</g>
<defs>
<clipPath id="clip0">
<rect width="48.896" height="48.896" fill="white" transform="translate(38.1965 15) rotate(15.6867)"/>
</clipPath>
</defs>
</svg>
