<svg width="66" height="66" viewBox="0 0 66 66" fill="none" xmlns="http://www.w3.org/2000/svg">
<path d="M45.7086 0.367395L19.8942 0.157455C9.2189 0.0706361 0.462811 8.68545 0.375992 19.3608L0.253527 34.4191C0.169639 44.7341 8.20872 53.2564 18.3815 53.8996L18.3085 62.8743C18.3003 63.8822 19.1154 64.7085 20.1243 64.7167C20.6072 64.7206 21.0648 64.5339 21.414 64.1904L23.4482 62.189C28.7919 56.9316 35.8619 54.0708 43.3555 54.1317L45.2701 54.1473C55.9454 54.2341 64.7015 45.6193 64.7883 34.944L64.9108 19.8856C64.9987 9.2103 56.3828 0.454205 45.7086 0.367395Z" fill="#096BA3"/>
<g clip-path="url(#clip0)">
<path d="M23.9653 30.1581L25.1866 30.5793C27.5527 31.3951 27.6287 34.7557 25.25 35.6461C25.25 36.2849 24.7726 36.6891 24.25 36.6891C23.7326 36.6891 23.25 36.291 23.25 35.6461C22.2284 35.2636 21.4989 34.2776 21.4989 33.1241C21.4989 32.5718 21.9466 32.1241 22.4989 32.1241C23.0512 32.1241 23.4989 32.5718 23.4989 33.1241C23.4989 33.5056 23.8094 33.8161 24.1909 33.8161H24.3091C25.0898 33.8161 25.2672 32.7226 24.5346 32.4699L23.3133 32.0488C20.9473 31.2331 20.8713 27.8724 23.25 26.9821C23.25 26.3432 23.7274 25.9391 24.25 25.9391C24.7674 25.9391 25.25 26.3371 25.25 26.9821C26.2716 27.3645 27.0011 28.3505 27.0011 29.504C27.0011 30.0563 26.5534 30.504 26.0011 30.504C25.4487 30.504 25.0011 30.0563 25.0011 29.504C25.0011 29.1225 24.6906 28.8121 24.3091 28.8121H24.1909C23.4102 28.812 23.2328 29.9055 23.9653 30.1581ZM32.5 31.3141C32.5 35.8631 28.7991 39.5641 24.25 39.5641C19.7009 39.5641 16 35.8632 16 31.3141C16 26.7649 19.7009 23.0641 24.25 23.0641C28.7991 23.0641 32.5 26.765 32.5 31.3141ZM30.5 31.3141C30.5 27.8678 27.6963 25.0641 24.25 25.0641C20.8037 25.0641 18 27.8678 18 31.3141C18 34.7604 20.8037 37.5641 24.25 37.5641C27.6963 37.5641 30.5 34.7604 30.5 31.3141ZM46 37.5641H45.3125V21.0641C45.3125 20.5118 44.8648 20.0641 44.3125 20.0641C43.7602 20.0641 43.3125 20.5118 43.3125 21.0641V37.5641H38.25V25.0641C38.25 24.5118 37.8023 24.0641 37.25 24.0641C36.6977 24.0641 36.25 24.5118 36.25 25.0641V37.5641H32C31.4477 37.5641 31 38.0118 31 38.5641C31 39.1164 31.4477 39.5641 32 39.5641H46C46.5523 39.5641 47 39.1164 47 38.5641C47 38.0118 46.5523 37.5641 46 37.5641ZM31.3946 24.2087L34.9688 20.6346L36.5429 22.2087C36.9334 22.5992 37.5666 22.5992 37.9571 22.2087L43.3125 16.8533V17.3141C43.3125 17.8664 43.7602 18.3141 44.3125 18.3141C44.8648 18.3141 45.3125 17.8664 45.3125 17.3141C45.3125 14.1406 45.3172 14.4099 45.3014 14.2979C45.253 13.9568 45.0288 13.6534 44.6948 13.5151C44.4475 13.4128 44.5241 13.4391 41.4375 13.4391C40.8852 13.4391 40.4375 13.8868 40.4375 14.4391C40.4375 14.9914 40.8852 15.4391 41.4375 15.4391H41.8983L37.25 20.0873L35.6758 18.5132C35.2853 18.1227 34.6521 18.1227 34.2616 18.5132L29.9804 22.7944C29.5898 23.1849 29.5898 23.8181 29.9804 24.2086C30.371 24.5993 31.0041 24.5992 31.3946 24.2087Z" fill="white"/>
</g>
<defs>
<clipPath id="clip0">
<rect width="31" height="31" fill="white" transform="translate(16 11)"/>
</clipPath>
</defs>
</svg>
