<svg width="103" height="104" viewBox="0 0 103 104" fill="none" xmlns="http://www.w3.org/2000/svg">
<path d="M25.3642 13.7472L59.1769 6.46139C73.1598 3.44843 86.9877 12.3736 90.0007 26.3566L94.2507 46.0806C97.162 59.5916 88.9287 72.9564 75.7562 76.5628L78.2892 88.3184C78.5737 89.6385 77.7286 90.9439 76.4071 91.2287C75.7745 91.365 75.1234 91.2444 74.572 90.8884L71.3595 88.8149C62.9206 83.3681 52.8676 81.5345 43.0521 83.6495L40.5443 84.1899C26.5613 87.2029 12.7334 78.2777 9.72047 64.2947L5.47044 44.5707C2.45606 30.588 11.3827 16.7598 25.3642 13.7472Z" fill="#096BA3"/>
<g clip-path="url(#clip0)">
<path d="M47.9998 34.0724C41.1156 35.4825 36.6621 42.2304 38.0722 49.1146C39.4822 55.9988 46.2302 60.4523 53.1143 59.0422C59.9985 57.6322 64.4521 50.8842 63.042 44.0001C61.6319 37.1159 54.884 32.6623 47.9998 34.0724ZM57.826 53.5748C56.4571 54.9967 54.6608 56.034 52.5853 56.4592C50.5097 56.8843 48.4502 56.6368 46.6326 55.8675L46.5477 55.4529C46.11 53.3165 47.4922 51.2223 49.6287 50.7847L53.0728 50.0792C55.2093 49.6416 57.3034 51.0237 57.741 53.1602L57.826 53.5748ZM48.2281 46.1372L47.8754 44.4151C47.6323 43.2282 48.4002 42.0648 49.5871 41.8216C50.774 41.5785 51.9375 42.3464 52.1806 43.5333L52.5333 45.2554C52.7764 46.4423 52.0086 47.6057 50.8216 47.8489C49.6347 48.092 48.4713 47.3241 48.2281 46.1372ZM59.6925 50.8727C58.7195 49.035 56.924 47.7632 54.8856 47.442C55.2114 46.6052 55.3096 45.6695 55.1164 44.7263L54.7637 43.0042C54.2288 40.393 51.6692 38.7037 49.058 39.2386C46.4468 39.7734 44.7575 42.333 45.2923 44.9442L45.6451 46.6663C45.8382 47.6094 46.2964 48.4312 46.925 49.0725C45.1771 50.1693 44.0261 52.0445 43.854 54.1169C42.2706 52.7162 41.1111 50.8112 40.6552 48.5855C39.5369 43.1256 43.069 37.7738 48.5289 36.6555C53.9888 35.5371 59.3406 39.0693 60.4589 44.5291C60.9148 46.7548 60.5977 48.9624 59.6925 50.8727Z" fill="white"/>
<path d="M72.2061 45.0247L69.3104 44.3354C69.2496 43.7728 69.1706 43.2601 69.0693 42.7655C68.968 42.2709 68.839 41.7685 68.6738 41.2272L71.0652 39.455C71.6006 39.0583 71.7557 38.3246 71.4269 37.7451L68.8241 33.1588C68.4953 32.5792 67.7858 32.3359 67.1706 32.5924L64.4325 33.7327C63.7173 32.9632 62.9306 32.2487 62.0807 31.597L62.9739 28.757C63.1737 28.1214 62.868 27.4366 62.2614 27.161L57.4599 24.9805C56.8532 24.7052 56.1365 24.9255 55.7894 25.4942L54.2368 28.0386C53.1953 27.8305 52.1413 27.7108 51.0867 27.6812L50.1397 24.858C49.9279 24.2265 49.2781 23.8522 48.6253 23.9859L43.4592 25.044C42.8064 25.1777 42.356 25.7774 42.4096 26.4415L42.6489 29.4097C41.6908 29.8516 40.7688 30.3759 39.893 30.9768L37.4651 29.2476C36.9224 28.8611 36.1766 28.9404 35.7271 29.4321L32.1695 33.3247C31.72 33.8165 31.7082 34.5664 32.1419 35.0723L34.0796 37.3324C33.5543 38.2658 33.1119 39.232 32.757 40.2207L29.791 40.2488C29.1243 40.2549 28.5679 40.7575 28.4934 41.4196L27.9034 46.6599C27.8288 47.322 28.26 47.9356 28.9082 48.0899L31.8038 48.7792C31.8647 49.3418 31.9437 49.8545 32.045 50.3491C32.1463 50.8437 32.2752 51.3461 32.4405 51.8874L30.049 53.6596C29.5137 54.0563 29.3586 54.7901 29.6874 55.3696L32.2902 59.9559C32.619 60.5353 33.3281 60.7785 33.9436 60.5222L36.6818 59.3819C37.3969 60.1514 38.1836 60.8658 39.0336 61.5175L38.1404 64.3576C37.9405 64.9933 38.2462 65.6781 38.8529 65.9536L43.6544 68.1341C44.2611 68.4096 44.9778 68.1891 45.3249 67.6204L46.8774 65.076C47.919 65.2842 48.9729 65.4038 50.0276 65.4334L50.9745 68.2566C51.1863 68.8881 51.8362 69.2625 52.4889 69.1288L57.6551 68.0706C58.3079 67.9369 58.7582 67.3372 58.7046 66.6731L58.4653 63.705C59.4235 63.2631 60.3455 62.7388 61.2213 62.1378L63.6491 63.8669C64.1919 64.2535 64.9376 64.174 65.3871 63.6824L68.9446 59.7898C69.3941 59.2979 69.406 58.5481 68.9723 58.0422L67.0345 55.7821C67.5598 54.8487 68.0023 53.8824 68.3572 52.8937L71.3231 52.8657C71.9896 52.8595 72.5462 52.357 72.6208 51.6948L73.2109 46.4546C73.2854 45.7926 72.8543 45.179 72.2061 45.0247ZM70.1312 50.2403L67.401 50.2661C67.3949 50.2661 67.3886 50.2662 67.3824 50.2662L67.3686 50.2664C66.716 50.2754 66.1806 50.7573 66.084 51.3816C65.6692 52.7095 65.0701 53.9995 64.3019 55.2184C64.0047 55.6899 64.0363 56.2974 64.3804 56.7357C64.3922 56.7506 64.4041 56.7653 64.4164 56.7797L66.2109 58.8726L64.2281 61.0422L61.9871 59.4462C61.5156 59.1055 60.8763 59.1143 60.414 59.4676C59.2357 60.3688 57.9481 61.1008 56.5872 61.643C56.0496 61.8572 55.7145 62.3969 55.761 62.9737L55.9827 65.7217L53.1032 66.3115L52.2265 63.6977C52.0426 63.1491 51.5222 62.7845 50.9437 62.799C49.4791 62.8355 48.0076 62.6687 46.5699 62.3033C46.0134 62.1619 45.4275 62.3998 45.1241 62.8872C45.122 62.8905 45.1199 62.8939 45.1179 62.8973L43.6819 65.2506L41.0057 64.0354L41.8236 61.4347C42.0097 60.8896 41.8202 60.2672 41.3244 59.9248C40.1387 59.1061 39.0807 58.1556 38.1773 57.0977C37.843 56.5617 37.1613 56.3292 36.5576 56.5774L36.5449 56.5826C36.5392 56.585 36.5335 56.5873 36.5278 56.5897L34.0073 57.6395L32.5566 55.0831L34.7716 53.4417C34.7767 53.4379 34.7853 53.4313 34.7905 53.4274C35.2437 53.0811 35.4229 52.4824 35.2343 51.944C34.9531 51.1412 34.7604 50.4662 34.6281 49.82C34.4957 49.1738 34.4075 48.4775 34.3504 47.6286C34.3121 47.0594 33.9078 46.5784 33.3548 46.4382C33.3486 46.4366 33.3424 46.4351 33.3361 46.4335L30.6541 45.7951L30.983 42.8743L33.7132 42.8485C33.7193 42.8485 33.7256 42.8484 33.7317 42.8484L33.7455 42.8481C34.3979 42.8394 34.9336 42.3573 35.0301 41.7329C35.4449 40.405 36.044 39.115 36.8123 37.8962C37.1095 37.4247 37.0779 36.8171 36.7338 36.3788C36.722 36.3639 36.71 36.3492 36.6977 36.3349L34.9032 34.242L36.8861 32.0724L39.1271 33.6684C39.5986 34.0091 40.2378 34.0003 40.7002 33.647C41.8784 32.7458 43.166 32.0139 44.527 31.4716C45.0646 31.2574 45.3996 30.7177 45.3532 30.1409L45.1316 27.3929L48.0111 26.8031L48.8877 29.417C49.0717 29.9656 49.592 30.3301 50.1705 30.3157C51.6351 30.2792 53.1067 30.4459 54.5444 30.8113C55.1009 30.9527 55.6867 30.7148 55.9902 30.2274C55.9923 30.2241 55.9943 30.2207 55.9963 30.2173L57.4323 27.864L60.1085 29.0793L59.2814 31.7092C59.2757 31.7272 59.2704 31.7457 59.2655 31.764C59.1214 32.3023 59.3313 32.8731 59.7899 33.1898C60.9755 34.0085 62.0335 34.959 62.937 36.0169C63.2713 36.553 63.9533 36.7859 64.5566 36.5373L64.5694 36.5321C64.5751 36.5296 64.5808 36.5273 64.5865 36.5249L67.107 35.4752L68.5577 38.0315L66.3428 39.6729C65.8762 40.0163 65.6885 40.6238 65.8799 41.1705C66.1612 41.9734 66.3538 42.6484 66.4862 43.2946C66.6185 43.9408 66.7068 44.6371 66.7639 45.486C66.8021 46.0552 67.2064 46.5363 67.7594 46.6764C67.7657 46.678 67.7719 46.6795 67.7781 46.6811L70.4601 47.3195L70.1312 50.2403Z" fill="white"/>
</g>
<defs>
<clipPath id="clip0">
<rect width="45" height="45" fill="white" transform="translate(24 29.0298) rotate(-11.5757)"/>
</clipPath>
</defs>
</svg>
