<svg width="86" height="86" viewBox="0 0 86 86" fill="none" xmlns="http://www.w3.org/2000/svg">
<path d="M17.8672 18.2405L41.6803 7.81931C51.5279 3.50971 63.0463 8.01551 67.3559 17.8632L73.435 31.7541C77.5991 41.2694 73.5336 52.3433 64.3715 56.9688L67.9946 65.2478C68.4015 66.1775 67.9743 67.2653 67.0436 67.6726C66.5981 67.8676 66.1006 67.8761 65.6413 67.6964L62.9653 66.6496C55.9359 63.8998 48.2579 64.0525 41.3451 67.0777L39.579 67.8506C29.7313 72.1602 18.2129 67.6544 13.9033 57.8067L7.82431 43.9157C3.51372 34.0685 8.02052 22.5497 17.8672 18.2405Z" fill="#096BA3"/>
<g clip-path="url(#clip0)">
<path d="M56.5207 28.0563C56.9417 29.0515 57.194 30.1022 57.2769 31.1798C58.6362 38.5348 49.2247 52.11 48.8244 52.6876C48.6984 52.866 48.5301 53.0025 48.3347 53.0852C48.1396 53.1678 47.9245 53.2009 47.706 53.1607C47.5185 53.1273 42.93 52.3741 37.9291 50.7863C37.3291 50.5934 37.0063 49.9592 37.19 49.3653C37.3842 48.7713 38.0148 48.4422 38.6113 48.6248C42.3377 49.805 45.9036 50.5252 47.3743 50.8009C50.1699 46.6505 55.9831 36.641 55.0295 31.4762C54.9494 30.5265 54.7516 29.7156 54.4257 28.9454C53.2913 26.2642 50.7858 24.4102 47.8874 24.11C44.181 23.7144 40.488 26.1824 39.412 29.7589C39.2196 30.4039 38.408 30.7473 37.8037 30.4394C34.4801 28.7222 30.1426 29.6589 27.8468 32.5857C26.0379 34.8812 25.6233 37.9689 26.7566 40.6474C27.0803 41.4125 27.5322 42.1197 28.0849 42.7537C28.5312 43.3769 29.1124 43.9249 29.7852 44.4642L35.8742 41.8879L35.9319 36.1973C35.9369 35.7102 36.2552 35.2705 36.7148 35.1305C37.1795 34.9799 37.6897 35.1442 37.9747 35.5398L42.2678 41.3967L42.8775 37.2889C42.9339 36.8994 43.1914 36.567 43.5563 36.4127L47.3353 34.8137C47.9104 34.5704 48.5751 34.8383 48.8195 35.4161C49.0627 35.9909 48.7933 36.657 48.2181 36.9004L45.0247 38.2515L44.1098 44.4483C44.0513 44.8435 43.7934 45.1738 43.4349 45.3255C43.378 45.3496 43.321 45.3684 43.2667 45.3822C42.8179 45.4926 42.3559 45.3229 42.0809 44.9542L38.1658 39.6213L38.1368 42.6503C38.1335 43.1051 37.8598 43.5071 37.4447 43.6827L25.2786 48.8302C24.7074 49.0715 24.0378 48.8043 23.7942 48.2284C23.551 47.6536 23.8249 46.9856 24.3959 46.7439L27.455 45.4497C27.0188 45.0236 26.6308 44.5952 26.3164 44.155C25.668 43.4339 25.0946 42.5173 24.6757 41.5274C23.22 38.0868 23.7508 34.1274 26.0693 31.1826C28.7514 27.7641 33.6429 26.4126 37.6871 27.9074C39.4224 23.9668 43.7952 21.399 48.1224 21.8519C51.8457 22.2377 55.064 24.6135 56.5207 28.0563Z" fill="white"/>
</g>
<defs>
<clipPath id="clip0">
<rect width="38" height="38" fill="white" transform="translate(16 29.8071) rotate(-22.9334)"/>
</clipPath>
</defs>
</svg>
