<svg width="56" height="56" viewBox="0 0 56 56" fill="none" xmlns="http://www.w3.org/2000/svg">
<path d="M19.4013 1.17044L40.06 2.73048C48.6032 3.37562 55.0291 10.8513 54.3839 19.3945L53.4739 31.4454C52.8505 39.7003 45.8509 45.9777 37.6724 45.8111L37.13 52.9935C37.0691 53.8 36.362 54.4063 35.5545 54.3453C35.1681 54.3161 34.8146 54.1362 34.5583 53.8381L33.0655 52.1013C29.1439 47.5391 23.6813 44.778 17.6842 44.3251L16.1521 44.2094C7.60883 43.5643 1.18294 36.0886 1.82808 27.5454L2.7381 15.4945C3.38238 6.95119 10.8589 0.525363 19.4013 1.17044Z" fill="#096BA3"/>
<g clip-path="url(#clip0)">
<path d="M40.2628 13.7137L38.3405 11.6264C38.0752 11.3382 37.6263 11.3197 37.3382 11.5852L33.6696 14.9635C33.3816 15.2287 33.3629 15.6777 33.6283 15.9659L34.1089 16.4877L33.1179 17.4002L30.9571 15.0538C30.5897 14.6548 29.9252 14.8 29.7596 15.3184L27.3601 22.8288C27.1933 23.3509 27.6591 23.8598 28.1955 23.7359L35.8777 21.9621C36.4074 21.8398 36.6079 21.1899 36.2399 20.7904L34.0791 18.4439L35.07 17.5314L35.5506 18.0531C35.8159 18.3413 36.2647 18.3599 36.5529 18.0944L40.2215 14.7161C40.5095 14.4509 40.5282 14.0018 40.2628 13.7137ZM34.3699 20.8541L29.0911 22.0731L30.7398 16.9122L32.0743 18.3613L31.46 18.927C31.1718 19.1923 31.1532 19.6411 31.4185 19.9294C31.6838 20.2176 32.1326 20.2363 32.4209 19.9709L33.0354 19.405L34.3699 20.8541ZM36.1137 16.5703C35.956 16.3991 35.9467 16.389 35.1525 15.5266L37.7775 13.1094L38.7386 14.153L36.1137 16.5703Z" fill="white"/>
<path d="M38.0336 25.7002C36.7741 25.6484 26.2259 25.214 25.8159 25.1972L25.9619 21.6532C25.978 21.2618 25.6737 20.9314 25.2823 20.9153L16.6646 20.5604C16.2732 20.5443 15.9427 20.8486 15.9266 21.24L15.7515 25.4927C15.7354 25.8842 16.0397 26.2146 16.4311 26.2307L20.0312 26.3789L19.9144 29.2141L16.3144 29.0658C15.9229 29.0497 15.5925 29.354 15.5764 29.7454L15.4013 33.9981C15.3852 34.3896 15.6895 34.72 16.0809 34.7361L33.3162 35.4458C33.7076 35.4619 34.038 35.1576 34.0541 34.7662L34.2001 31.2222L37.8001 31.3705C38.1915 31.3866 38.522 31.0823 38.5381 30.6909L38.7132 26.4382C38.7293 26.0468 38.425 25.7163 38.0336 25.7002ZM17.315 22.0072L24.5151 22.3037L24.3984 25.1388C24.0819 25.1258 17.514 24.8553 17.1983 24.8423L17.315 22.0072ZM21.4487 26.4373L28.6488 26.7338L28.5321 29.5689C28.2156 29.5559 21.6477 29.2854 21.332 29.2724L21.4487 26.4373ZM16.9648 30.5126L24.1649 30.809L24.0481 33.6442L16.8481 33.3477L16.9648 30.5126ZM32.6658 33.999L25.4657 33.7025L25.5825 30.8674L32.7825 31.1639L32.6658 33.999L32.6658 33.999ZM37.1497 29.9237C36.8332 29.9107 30.2653 29.6403 29.9496 29.6273L30.0663 26.7921L37.2664 27.0886L37.1497 29.9237Z" fill="white"/>
</g>
<defs>
<clipPath id="clip0">
<rect width="24.2136" height="24.2136" fill="white" transform="translate(16.3682 10.5138) rotate(2.35786)"/>
</clipPath>
</defs>
</svg>
