<svg width="98" height="99" viewBox="0 0 98 99" fill="none" xmlns="http://www.w3.org/2000/svg">
<path d="M29.4044 0H68.5947C84.8014 0 97.9873 13.1859 97.9873 29.3927V52.2536C97.9873 67.9134 85.6783 80.7514 70.2276 81.6022V95.2273C70.2276 96.7573 68.98 98.0016 67.4483 98.0016C66.7152 98.0016 66.0228 97.7126 65.497 97.1868L62.4336 94.1234C54.3866 86.0764 43.6893 81.6463 32.3127 81.6463H29.4061C13.1993 81.6463 0.0134277 68.4604 0.0134277 52.2536V29.3927C0.011795 13.1859 13.1993 0 29.4044 0Z" fill="#096BA3"/>
<path d="M48.127 28.0287C47.7151 28.0287 47.2099 27.9684 46.8639 27.5829C46.7437 27.4475 46.6383 27.3211 46.5361 27.2156C45.7121 26.3484 44.2927 27.5529 45.1528 28.6789L45.3603 28.9469C45.4956 29.1156 45.7392 29.3113 46.088 29.5341C46.4279 29.7507 46.8068 29.9074 47.2278 30.0007V31.4882C47.2278 32.0001 47.6457 32.4216 48.1571 32.4216C48.6713 32.4216 49.1074 32.0001 49.1074 31.4882V29.9917C49.781 29.8353 50.3584 29.507 50.8305 29.0103C51.3055 28.5133 51.5432 27.854 51.5432 27.032C51.5432 26.4719 51.4351 26.0053 51.2184 25.6288C51.0019 25.2555 50.7373 24.9936 50.4215 24.8459C50.1028 24.6984 49.7569 24.5689 49.3749 24.4576C48.9961 24.3462 48.6503 24.2678 48.3314 24.2198C48.0158 24.1744 47.7511 24.078 47.5345 23.9367C47.318 23.792 47.2098 23.6054 47.2098 23.3735C47.2098 22.2655 48.8337 22.4009 49.5493 23.0032C50.6049 23.8914 51.7867 22.2655 50.5627 21.3472L50.4214 21.2206C50.3251 21.1456 50.1568 21.0521 49.9131 20.9346C49.6726 20.8173 49.4018 20.7299 49.1073 20.6666V19.7664V19.375C49.1073 18.8631 48.6892 18.4417 48.175 18.4417C47.6637 18.4417 47.2428 18.863 47.2428 19.375V20.6516C46.557 20.7872 45.9886 21.1275 45.5948 21.6302C45.1978 22.1421 44.9964 22.7083 44.9964 23.3404C44.9964 23.9758 45.1438 24.4967 45.4384 24.9092C45.7331 25.3215 46.091 25.6107 46.515 25.7793C46.9361 25.948 47.357 26.0835 47.778 26.1827C48.202 26.2853 48.56 26.3965 48.8545 26.526C49.1493 26.6525 49.2967 26.8302 49.2967 27.062C49.2968 27.7063 48.9059 28.0287 48.127 28.0287Z" fill="white"/>
<path d="M74.8851 44.4644L66.2189 33.364C65.6351 32.6143 64.7502 32.1843 63.7909 32.1843C63.1139 32.1843 62.473 32.3993 61.9351 32.8073L56.2635 37.1307C55.6143 37.6255 55.1996 38.3435 55.0956 39.1524C55.0801 39.273 55.0728 39.3932 55.0715 39.5128C52.9094 39.349 50.6762 39.5137 48.5074 40.9234L48.4102 40.9865L42.9238 40.1475C42.9351 39.9576 42.929 39.7653 42.904 39.5724C42.7994 38.7654 42.3853 38.049 41.7374 37.555L36.0644 33.2356C34.7353 32.2192 32.8136 32.4661 31.7801 33.7875L29.7142 36.4342C29.3526 36.8972 29.4351 37.5656 29.8981 37.9269C30.3612 38.2884 31.0296 38.206 31.391 37.743L33.4563 35.0972C33.7689 34.6974 34.3716 34.6188 34.774 34.9266L40.4483 39.247C40.6404 39.3935 40.7634 39.6062 40.7944 39.846C40.8255 40.0862 40.7607 40.3239 40.6126 40.514L31.9447 51.6162C31.6342 52.015 31.0308 52.0929 30.629 51.7882L24.9572 47.4644C24.764 47.3172 24.6405 47.1037 24.6096 46.8636C24.5789 46.6246 24.6438 46.3884 24.793 46.1978L26.2666 44.31C26.6281 43.847 26.5457 43.1786 26.0826 42.8173C25.6196 42.4556 24.9512 42.5382 24.5897 43.0012L23.1169 44.8879C22.6152 45.5293 22.396 46.3272 22.4998 47.1346C22.6037 47.9435 23.0186 48.6615 23.6676 49.1562L29.3412 53.4814C29.8934 53.9002 30.5459 54.1028 31.1942 54.1027C31.5692 54.1027 31.9422 54.0339 32.2939 53.901L33.0282 54.9066C32.6291 55.6347 32.5669 56.5092 32.8876 57.3533C33.3461 58.5601 34.4279 59.3783 35.5983 59.4172C35.6346 59.5891 35.6849 59.7609 35.7535 59.9311C36.2253 61.1 37.3025 61.8956 38.4601 61.9479C38.4653 61.9783 38.4693 62.0088 38.4756 62.0392C38.6958 63.1095 39.5169 64.0235 40.5672 64.3678C40.8348 64.4556 41.1046 64.5006 41.3717 64.5085C41.474 64.9394 41.6879 65.3556 42.0167 65.721C42.5292 66.2906 43.2773 66.6551 44.0981 66.655C44.6941 66.655 45.3285 66.4616 45.9382 66.0159L47.1426 67.1416C47.7561 67.7141 48.5283 67.9999 49.2932 67.9999C50.069 67.9998 50.837 67.7058 51.4235 67.1187C51.7733 66.7687 52.0442 66.3522 52.2195 65.9138C52.5184 66.0046 52.8104 66.0476 53.0905 66.0476C53.8793 66.0475 54.5754 65.7144 55.0741 65.2007C55.4822 64.7804 55.7743 64.2209 55.9035 63.6245C55.9467 63.6267 55.9898 63.6285 56.0332 63.6289C56.0438 63.629 56.0543 63.629 56.0649 63.629C56.9038 63.629 57.7087 63.304 58.2772 62.7347C58.6755 62.3361 58.9495 61.8453 59.0803 61.3095C59.2832 61.3491 59.4869 61.3697 59.6903 61.3697C59.9463 61.3697 60.2016 61.338 60.4531 61.2736C61.4788 61.0107 62.2708 60.2092 62.52 59.1816C62.75 58.2334 62.5131 57.2345 61.8679 56.3267C63.5383 54.9828 64.214 54.3207 64.977 53.083C65.4982 53.4663 66.1327 53.6776 66.8033 53.6776C66.8034 53.6776 66.8034 53.6776 66.8035 53.6776C67.4825 53.6776 68.1245 53.4611 68.6584 53.0528L74.3336 48.7317C74.9809 48.2383 75.3951 47.522 75.4997 46.7149C75.6044 45.907 75.3865 45.108 74.8851 44.4644ZM36.1547 57.0719C35.9918 57.2191 35.8338 57.2938 35.685 57.2938C35.3795 57.2938 35.0243 56.9883 34.876 56.5979C34.7414 56.2434 34.8042 55.9473 35.0632 55.7173L35.0666 55.7143C35.0677 55.7134 35.0688 55.7123 35.0699 55.7115L38.6531 52.5265C38.9528 52.2606 39.2545 52.12 39.5256 52.12C39.9224 52.12 40.2191 52.4214 40.3268 52.7015C40.4419 53.0007 40.3726 53.2676 40.122 53.4943L39.4975 54.0576C39.4969 54.0581 39.4963 54.0585 39.4958 54.0591C39.4927 54.0617 39.4898 54.0645 39.4867 54.0672C39.4643 54.0874 39.4412 54.1083 39.4185 54.1289L36.1547 57.0719ZM39.051 59.614C38.8895 59.7567 38.7357 59.8259 38.5808 59.8259C38.258 59.8259 37.8826 59.5225 37.7262 59.1349C37.5539 58.7079 37.7584 58.5108 37.823 58.4484C37.8646 58.4085 37.9145 58.3607 37.9665 58.305C37.9668 58.3047 37.9671 58.3044 37.9674 58.3042L37.9784 58.2945C38.183 58.1117 39.9847 56.4838 40.8456 55.706L40.9097 55.6482C41.2014 55.3921 41.4969 55.2568 41.7647 55.2568C42.187 55.2568 42.5014 55.5799 42.6148 55.8801C42.7275 56.1786 42.6599 56.4398 42.4146 56.6558L42.194 56.8499C42.1923 56.8514 42.1907 56.8525 42.1891 56.854C42.1886 56.8545 42.1881 56.8551 42.1875 56.8556L39.051 59.614ZM42.2212 61.9097C42.2065 61.9229 42.1927 61.9367 42.1785 61.9501L41.9289 62.1753C41.7071 62.3757 41.485 62.4303 41.2298 62.3466C40.9071 62.2408 40.6253 61.9313 40.5593 61.6106C40.5019 61.3319 40.6135 61.0735 40.8968 60.8237L41.2517 60.5137C41.2607 60.5059 41.2684 60.4973 41.277 60.4893L43.6018 58.4448C44.1589 57.9524 44.7106 57.903 45.0778 58.3136C45.1295 58.3714 45.5674 58.892 45.0328 59.3749L43.605 60.6632C43.5897 60.6767 43.5742 60.6888 43.5591 60.7027C43.5537 60.7076 43.5492 60.7133 43.544 60.7182L42.2375 61.897C42.2323 61.9015 42.2264 61.905 42.2212 61.9097ZM43.5982 64.2982C43.4861 64.1737 43.2699 63.8511 43.6246 63.5104L45.0488 62.2253C45.1566 62.1331 45.2605 62.06 45.3577 62.0098C45.3622 62.0075 45.3667 62.0052 45.3711 62.0029C45.9452 61.6963 46.2563 62.0537 46.3382 62.1705C46.4433 62.3207 46.5716 62.6157 46.2491 62.9053L45.2733 63.7823C45.2697 63.7856 45.2661 63.789 45.2624 63.7923L44.8393 64.1725C44.1442 64.7964 43.7136 64.4267 43.5982 64.2982ZM60.4527 58.6802C60.3873 58.9497 60.1951 59.1438 59.9252 59.213C59.4778 59.3276 58.9114 59.0791 58.3929 58.5471C58.354 58.5041 58.3141 58.4617 58.2725 58.4206L54.2577 54.4521C53.8398 54.0392 53.1664 54.043 52.7535 54.4608C52.3406 54.8786 52.3444 55.552 52.7622 55.9649L56.7705 59.927C56.7771 59.9341 56.784 59.9411 56.7905 59.9481C56.9506 60.1129 57.0398 60.3329 57.0407 60.571C57.0417 60.8226 56.9463 61.0571 56.7721 61.2316C56.6003 61.4037 56.3432 61.5019 56.0654 61.5019C56.0615 61.5019 56.0577 61.5019 56.0538 61.5018C55.8079 61.4995 55.5834 61.4171 55.4255 61.2733C55.3589 61.1873 55.2864 61.1039 55.2068 61.0239L52.2717 58.0852C51.8566 57.6698 51.1832 57.6694 50.7675 58.0843C50.352 58.4994 50.3516 59.1727 50.7666 59.5884L53.55 62.3753C53.5835 62.4243 53.6208 62.4717 53.6636 62.5159L53.782 62.638C53.9347 62.9286 53.84 63.4182 53.5479 63.7192C53.0971 64.1833 52.4626 63.7741 52.0107 63.3496L50.7537 62.1664C50.326 61.7637 49.6528 61.784 49.2503 62.2117C48.8476 62.6395 48.8679 63.3126 49.2956 63.7153L50.2558 64.619C50.2581 64.6212 50.26 64.6237 50.2623 64.6258C50.2843 64.6462 50.3173 64.6772 50.319 64.7845C50.3231 65.0337 50.1584 65.3756 49.9187 65.6155C49.5688 65.9658 48.9869 65.9532 48.5947 65.5871L47.5421 64.6033L47.6708 64.4876C48.7145 63.5504 48.8829 62.0959 48.0804 60.9503C47.8193 60.5775 47.4922 60.2879 47.1253 60.0868C47.6425 59.0668 47.4979 57.8284 46.6631 56.8953C46.1922 56.3688 45.527 56.0093 44.7845 55.9297C44.7633 55.6628 44.7049 55.3939 44.6048 55.1287C44.2434 54.1721 43.4403 53.468 42.4951 53.2242C42.5344 52.8004 42.4759 52.3629 42.3122 51.9374C41.8645 50.7744 40.7448 49.9928 39.5257 49.9928C38.7263 49.9928 37.9365 50.3186 37.2408 50.9357L34.5253 53.3495L33.9284 52.532L42.0248 42.1619L45.7265 42.728L45.1665 43.0914C42.167 45.0375 41.9474 47.3007 42.7422 48.77C43.3783 49.9461 44.6478 50.6184 45.9954 50.6184C46.5501 50.6183 47.1184 50.5044 47.6608 50.2646C47.6752 50.2582 47.6894 50.2517 47.7033 50.2447L50.5076 48.8543L52.1264 50.3282C52.128 50.3297 52.1297 50.3308 52.1311 50.3321C52.1327 50.3336 52.134 50.3351 52.1356 50.3366L59.6177 56.9908C60.2589 57.5609 60.5711 58.1924 60.4527 58.6802ZM60.3633 54.8073L53.5538 48.7513L51.4022 46.7923C51.0782 46.4971 50.6063 46.4309 50.2137 46.6257L46.7813 48.3277C45.8488 48.7288 44.9315 48.3471 44.613 47.7583C44.1753 46.9491 44.8309 45.8446 46.3241 44.876L49.6659 42.7075C51.4779 41.5296 53.3786 41.4387 55.9787 41.7404L63.5076 51.3873C62.7131 52.8141 62.2912 53.267 60.3633 54.8073ZM73.3902 46.4414C73.3591 46.6809 73.2362 46.8935 73.0444 47.0397L67.3679 51.3617C67.164 51.5177 66.9484 51.5504 66.8035 51.5504C66.5052 51.5503 66.2313 51.419 66.0528 51.1907L57.388 40.0885C57.2395 39.8985 57.1747 39.6625 57.2054 39.4235C57.2364 39.1832 57.3597 38.9697 57.5531 38.8223L63.2229 34.5003C63.4285 34.3443 63.6452 34.3115 63.7908 34.3115C64.0895 34.3115 64.3627 34.4424 64.5413 34.6718L73.2075 45.7723C73.3564 45.9636 73.4214 46.2011 73.3902 46.4414Z" fill="white"/>
<path d="M42.7594 35.6066C44.4292 36.5077 46.3156 36.984 48.2144 36.984C54.5449 36.984 59.6951 31.8279 59.6951 25.4904C59.6951 21.0672 57.1129 16.9884 53.1174 15.0991C51.5782 14.3698 49.9287 14 48.2144 14C41.8854 14 36.7366 19.1546 36.7366 25.4904C36.7366 29.7161 39.0437 33.5921 42.7594 35.6066ZM48.2144 16.1271C49.6111 16.1271 50.9543 16.428 52.2074 17.0216C55.4637 18.5613 57.5679 21.8856 57.5679 25.4904C57.5679 30.6551 53.3719 34.8569 48.2145 34.8569C46.6671 34.8569 45.1301 34.4687 43.7714 33.7357C40.7443 32.0943 38.8638 28.9349 38.8638 25.4904C38.8638 20.3275 43.0584 16.1271 48.2144 16.1271Z" fill="white"/>
<path d="M27.327 41.2019C27.5228 41.3582 27.7571 41.4341 27.9897 41.4341C28.3021 41.4341 28.6117 41.2971 28.8217 41.0339L28.8337 41.0188C29.2001 40.5597 29.1249 39.8905 28.6658 39.5241C28.2067 39.1579 27.5374 39.2328 27.1711 39.6921L27.1591 39.7072C26.7927 40.1663 26.8679 40.8355 27.327 41.2019Z" fill="white"/>
</svg>
