<svg width="93" height="93" viewBox="0 0 93 93" fill="none" xmlns="http://www.w3.org/2000/svg">
<path d="M19.9568 18.4619L46.5553 7.91421C57.5549 3.55229 70.053 8.95269 74.4149 19.9523L80.5678 35.468C84.7825 46.0963 79.8836 58.1224 69.6261 62.8583L73.2932 72.1057C73.705 73.1441 73.1932 74.3244 72.1536 74.7366C71.656 74.934 71.1083 74.9241 70.61 74.7088L67.7064 73.4542C60.079 70.1584 51.6264 70.0308 43.9051 73.0927L41.9324 73.875C30.9328 78.2369 18.4347 72.8365 14.0727 61.8369L7.91989 46.3211C3.55686 35.322 8.95837 22.8234 19.9568 18.4619Z" fill="#096BA3"/>
<g clip-path="url(#clip0)">
<path d="M49.6664 34.8094L48.9532 34.7429C48.8852 34.5539 48.8103 34.3706 48.7276 34.1907C48.645 34.0108 48.5547 33.8345 48.4556 33.6597L48.8697 33.0754C49.0319 32.8465 49.0966 32.5625 49.0494 32.286C49.0022 32.0094 48.8471 31.7629 48.6182 31.6006L45.1657 29.1541C44.6889 28.8162 44.0287 28.9287 43.691 29.4055L43.2737 29.9944C42.8839 29.9261 42.4895 29.8894 42.0924 29.8846L41.791 29.2285C41.5471 28.6976 40.9189 28.4649 40.388 28.7088L36.5429 30.4755C36.012 30.7194 35.7794 31.3475 36.0233 31.8784L36.3247 32.5345C36.0698 32.8389 35.8407 33.1621 35.6387 33.5023L34.92 33.4354C34.3379 33.3811 33.8227 33.8087 33.7685 34.3905L33.3759 38.6037C33.3499 38.883 33.4359 39.1613 33.615 39.3773C33.7941 39.5932 34.0517 39.7291 34.331 39.7552L35.0446 39.8217C35.1131 40.012 35.1883 40.1964 35.2698 40.3739C35.3513 40.5513 35.4423 40.7286 35.5421 40.9045L35.1277 41.4892C34.7899 41.9659 34.9025 42.6262 35.3792 42.964L38.8317 45.4105C39.3084 45.7483 39.9687 45.6359 40.3064 45.159L40.7238 44.5701C41.1135 44.6385 41.5079 44.6752 41.905 44.68L42.2064 45.3361C42.4503 45.867 43.0785 46.0997 43.6094 45.8557L47.4545 44.0891C47.9854 43.8452 48.218 43.217 47.9741 42.6862L47.6727 42.0301C47.9276 41.7256 48.1567 41.4024 48.3588 41.0623L49.0774 41.1292C49.6593 41.1834 50.1746 40.7557 50.2289 40.1741L50.6215 35.9609C50.6757 35.3792 50.2481 34.8636 49.6664 34.8094ZM46.3176 34.236C46.5158 34.5173 46.6752 34.7914 46.8051 35.074C46.9349 35.3566 47.039 35.6561 47.1233 35.9896C47.233 36.424 47.6046 36.7422 48.0507 36.7837L48.4167 36.8178L48.2204 38.9244L47.8515 38.8901C47.4048 38.8483 46.9807 39.093 46.7928 39.5001C46.5218 40.0873 46.147 40.6162 45.6787 41.0721C45.3578 41.3844 45.2684 41.8649 45.4553 42.2717L45.6099 42.6081L43.6873 43.4915L43.5327 43.155C43.3458 42.7482 42.9229 42.503 42.477 42.5431C41.8261 42.6014 41.1806 42.5413 40.5586 42.3644C40.1272 42.2417 39.6655 42.4043 39.4061 42.7703L39.1918 43.0726L37.4656 41.8493L37.6781 41.5494C37.9372 41.1837 37.9378 40.6944 37.6797 40.3283C37.4817 40.0475 37.3223 39.7734 37.1924 39.4906C37.0624 39.2077 36.9583 38.9082 36.8742 38.575C36.7644 38.1405 36.3928 37.8223 35.9466 37.7808L35.5806 37.7467L35.777 35.6401L36.1459 35.6744C36.5926 35.7162 37.0167 35.4715 37.2046 35.0644C37.4756 34.4772 37.8504 33.9484 38.3187 33.4925C38.6395 33.1801 38.729 32.6996 38.5421 32.2928L38.3875 31.9563L40.3101 31.073L40.4646 31.4094C40.6515 31.8163 41.0744 32.0614 41.5204 32.0214C42.1713 31.9631 42.8167 32.0232 43.4388 32.2001C43.8702 32.3228 44.332 32.1602 44.5913 31.7942L44.8056 31.4919L46.5318 32.7152L46.3192 33.0151C46.0602 33.3806 46.0594 33.8698 46.3176 34.236Z" fill="white"/>
<path d="M40.6736 34.3985C39.0835 35.1291 38.3842 37.0171 39.1148 38.6074C39.8454 40.1975 41.7334 40.8968 43.3236 40.1662C44.9137 39.4356 45.6131 37.5475 44.8825 35.9574C44.1518 34.3672 42.2638 33.6679 40.6736 34.3985ZM42.4403 38.2436C41.9102 38.4871 41.2808 38.254 41.0373 37.724C40.7938 37.1939 41.0269 36.5646 41.5569 36.321C42.087 36.0775 42.7163 36.3106 42.9599 36.8407C43.2034 37.3708 42.9703 38.0001 42.4403 38.2436Z" fill="white"/>
<path d="M61.2802 36.4401L58.0111 33.8156C57.0642 33.0554 56.2865 32.0539 55.7622 30.9197C54.8612 28.9702 53.5904 27.2706 51.9852 25.8678C50.4349 24.5128 48.6521 23.5015 46.6864 22.8621C44.7246 22.2238 42.693 21.9929 40.6479 22.1758C38.5178 22.3663 36.4763 22.9989 34.5813 24.056C28.0891 27.6769 25.1751 35.6552 27.803 42.6142C29.2443 46.4306 32.0826 49.4454 35.7952 51.1029C36.8493 51.5736 37.6848 52.3876 38.1477 53.395L41.0094 59.6235C41.2533 60.1544 41.8814 60.387 42.4123 60.1431L55.8702 53.9599C56.4011 53.716 56.6338 53.0878 56.3899 52.5569L55.1533 49.8654C54.7467 48.9806 55.1345 47.9337 56.0193 47.5272L59.2236 46.055C60.8163 45.3232 61.5142 43.4389 60.7824 41.8461L59.4575 38.9624L61.0596 38.2263C61.7742 37.898 61.8935 36.9324 61.2802 36.4401ZM57.6129 37.4815C57.082 37.7254 56.8494 38.3536 57.0933 38.8845L58.8599 42.7295C59.1038 43.2604 58.8712 43.8886 58.3403 44.1325L55.136 45.6047C53.1893 46.4991 52.3363 48.8021 53.2307 50.7487L54.0257 52.479L42.4903 57.779L40.0702 52.5116C39.3929 51.0375 38.181 49.8512 36.6578 49.171C33.4645 47.7453 31.0228 45.1512 29.7824 41.8667C27.5219 35.8807 30.0281 29.0182 35.6119 25.9039C38.8389 24.1035 42.5399 23.7381 46.0319 24.8741C49.4764 25.9947 52.323 28.5218 53.8417 31.8075C54.5024 33.2368 55.4861 34.5018 56.6867 35.4655L58.6209 37.0184L57.6129 37.4815Z" fill="white"/>
</g>
<defs>
<clipPath id="clip0">
<rect width="36.1092" height="36.1092" fill="white" transform="translate(20.5444 30.4521) rotate(-24.6764)"/>
</clipPath>
</defs>
</svg>
