<svg width="98" height="98" viewBox="0 0 98 98" fill="none" xmlns="http://www.w3.org/2000/svg">
<path d="M74.284 14.6653L43.8137 6.28654C31.2129 2.82156 18.1418 10.2544 14.6768 22.8552L9.78921 40.6295C6.44118 52.8049 13.2666 65.4181 25.0977 69.3829L22.1846 79.9765C21.8575 81.1661 22.5615 82.4002 23.7523 82.7277C24.3224 82.8845 24.9225 82.8078 25.4437 82.5114L28.4804 80.7845C36.4574 76.2484 45.7217 75.0911 54.567 77.5234L56.8269 78.1448C69.4276 81.6098 82.4987 74.1769 85.9637 61.5762L90.8513 43.8018C94.3176 31.2014 86.8835 18.13 74.284 14.6653Z" fill="#096BA3"/>
<g clip-path="url(#clip0)">
<path d="M72.3368 40.2263C74.0184 34.5192 70.7435 28.5082 65.0365 26.8266C59.631 25.2338 53.9534 28.0881 51.9396 33.2435L38.025 29.1435L32.7669 46.9883L32.248 46.8354C31.6411 46.6566 30.9975 46.8019 30.5264 47.2241C30.0553 47.6464 29.8405 48.2702 29.9519 48.893L30.4125 51.4665C30.7583 53.3984 32.1425 54.9432 34.0252 55.4979L56.1469 62.0162C58.0295 62.5709 60.0302 62.0236 61.3683 60.5879L63.1507 58.6753C63.582 58.2125 63.7399 57.5718 63.5729 56.9615C63.406 56.3512 62.944 55.8802 62.3371 55.7013L61.8183 55.5485L64.1155 47.7523C67.9098 46.982 71.1684 44.1916 72.3368 40.2263ZM64.3997 28.9878C68.915 30.3183 71.506 35.0742 70.1755 39.5895C68.8451 44.1048 64.0892 46.6959 59.5739 45.3654C55.0586 44.0349 52.4676 39.279 53.798 34.7637C55.1285 30.2485 59.8844 27.6574 64.3997 28.9878ZM59.7201 59.0517C58.9676 59.8591 57.8424 60.1669 56.7838 59.855L34.662 53.3367C33.6033 53.0247 32.8249 52.156 32.6304 51.0696L32.2955 49.1983L61.0161 57.661L59.7201 59.0517ZM59.657 54.9116L34.9282 47.6251L39.5494 31.9416L51.3412 35.4161C50.4614 40.7126 53.6587 45.9713 58.937 47.5266C59.8581 47.798 60.787 47.9396 61.7043 47.9634L59.657 54.9116L59.657 54.9116Z" fill="white"/>
<path d="M57.2933 38.4508L56.0027 39.154L57.0807 41.1325L58.3712 40.4294C58.7116 40.809 59.1142 41.1371 59.5687 41.3975L59.1536 42.8062L61.3148 43.443L61.7299 42.0343C62.253 42.062 62.7692 42.0045 63.261 41.8702L63.9641 43.1607L65.9426 42.0828L65.2395 40.7922C65.6191 40.4519 65.9472 40.0493 66.2076 39.5948L67.6163 40.0099L68.2531 37.8486L66.8444 37.4335C66.8721 36.9105 66.8147 36.3942 66.6803 35.9025L67.9709 35.1994L66.893 33.2208L65.6024 33.924C65.2621 33.5444 64.8594 33.2163 64.4049 32.9559L64.8201 31.5471L62.6588 30.9103L62.2437 32.319C61.7206 32.2913 61.2044 32.3487 60.7127 32.4831L60.0095 31.1925L58.031 32.2704L58.7341 33.561C58.3545 33.9014 58.0264 34.3039 57.7659 34.7585L56.3573 34.3434L55.7205 36.5047L57.1291 36.9198C57.1015 37.4428 57.1589 37.959 57.2933 38.4508ZM62.7252 34.671C64.1068 35.0781 64.8996 36.5334 64.4925 37.9149C64.0854 39.2965 62.6302 40.0893 61.2486 39.6822C59.8669 39.2751 59.0741 37.8198 59.4812 36.4383C59.8883 35.0567 61.3435 34.2639 62.7252 34.671Z" fill="white"/>
</g>
<defs>
<clipPath id="clip0">
<rect width="38.4" height="38.4" fill="white" transform="translate(38.8535 18) rotate(16.4179)"/>
</clipPath>
</defs>
</svg>
