<svg width="27" height="36" viewBox="0 0 27 36" fill="none" xmlns="http://www.w3.org/2000/svg">
<path d="M13.375 0C5.99869 0 0 5.99869 0 13.375C0 22.6461 12.0732 34.8263 12.5859 35.3412C12.8043 35.5574 13.0897 35.6667 13.375 35.6667C13.6603 35.6667 13.9457 35.5574 14.1641 35.3412C14.6768 34.8263 26.75 22.6461 26.75 13.375C26.75 5.99869 20.7513 0 13.375 0ZM13.375 32.9404C10.7134 30.0915 2.22917 20.4571 2.22917 13.375C2.22917 7.22919 7.22919 2.22917 13.375 2.22917C19.5208 2.22917 24.5208 7.22919 24.5208 13.375C24.5208 20.4504 16.0366 30.0915 13.375 32.9404Z" fill="#CEDAED"/>
<path d="M13.375 6.6875C9.68796 6.6875 6.6875 9.68796 6.6875 13.375C6.6875 17.062 9.68796 20.0625 13.375 20.0625C17.062 20.0625 20.0625 17.062 20.0625 13.375C20.0625 9.68796 17.062 6.6875 13.375 6.6875ZM13.375 17.8333C10.9162 17.8333 8.91667 15.8338 8.91667 13.375C8.91667 10.9162 10.9162 8.91667 13.375 8.91667C15.8338 8.91667 17.8333 10.9162 17.8333 13.375C17.8333 15.8338 15.8338 17.8333 13.375 17.8333Z" fill="#CEDAED"/>
</svg>
