<svg width="30" height="30" viewBox="0 0 30 30" fill="none" xmlns="http://www.w3.org/2000/svg">
<path d="M7.03125 11.8945H4.71568C5.10686 6.5625 9.56988 2.34375 15 2.34375C19.2969 2.34375 23.1851 5.0502 24.6753 9.07846C24.8998 9.68543 25.5739 9.99545 26.181 9.77098C26.7879 9.54639 27.098 8.87232 26.8735 8.26529C25.9853 5.86436 24.4075 3.80982 22.3106 2.32377C20.1654 0.803555 17.6375 0 15 0C11.6194 0 8.44113 1.31648 6.05068 3.70693C3.69141 6.06621 2.3792 9.19301 2.34533 12.5242C0.944824 13.3358 0 14.8502 0 16.582V20.5664C0 23.1511 2.10281 25.2539 4.6875 25.2539H7.03125C7.67848 25.2539 8.20312 24.7293 8.20312 24.082V13.0664C8.20312 12.4192 7.67848 11.8945 7.03125 11.8945ZM5.85938 22.9102H4.6875C3.39516 22.9102 2.34375 21.8587 2.34375 20.5664V16.582C2.34375 15.2897 3.39516 14.2383 4.6875 14.2383H5.85938V22.9102Z" fill="#CEDAED"/>
<path d="M25.3125 11.8945H22.9688C22.3215 11.8945 21.7969 12.4192 21.7969 13.0664V21.0938V24.082V25.3125C21.7969 25.9587 21.2712 26.4844 20.625 26.4844H17.0508V26.5215C16.6511 25.8006 15.8827 25.3125 15 25.3125C13.7056 25.3125 12.6562 26.3619 12.6562 27.6562C12.6562 28.9506 13.7056 30 15 30C15.8827 30 16.6511 29.5119 17.0508 28.791V28.8281H20.625C22.5635 28.8281 24.1406 27.251 24.1406 25.3125V25.2539H25.3125C27.8972 25.2539 30 23.1511 30 20.5664V16.582C30 13.9973 27.8972 11.8945 25.3125 11.8945ZM27.6562 20.5664C27.6562 21.8588 26.6048 22.9102 25.3125 22.9102H24.1406V21.0938V14.2383H25.3125C26.6048 14.2383 27.6562 15.2897 27.6562 16.582V20.5664Z" fill="#CEDAED"/>
</svg>
