<svg width="146" height="150" viewBox="0 0 146 150" fill="none" xmlns="http://www.w3.org/2000/svg">
<path d="M106.376 56.9445C108.36 56.9445 110.245 56.1773 111.684 54.7845C112.554 53.9418 112.577 52.553 111.734 51.6829C110.892 50.8124 109.503 50.7896 108.633 51.6326C108.016 52.229 107.215 52.5577 106.376 52.5577H105.737C104.898 52.5577 104.096 52.2293 103.48 51.6326C102.609 50.7896 101.221 50.8124 100.378 51.6829C99.5358 52.5533 99.5583 53.9421 100.429 54.7845C101.868 56.1773 103.753 56.9445 105.737 56.9445H106.376Z" fill="#E9F1FF"/>
<path d="M62.27 110.497C62.8161 110.801 63.4216 110.953 64.0265 110.953C64.6828 110.953 65.3386 110.774 65.9169 110.418L79.54 102.024C80.6126 101.363 81.2529 100.216 81.2529 98.9565C81.2529 97.6968 80.6126 96.5499 79.54 95.8891L65.9166 87.4949C64.8063 86.8107 63.409 86.7809 62.27 87.4165C61.1314 88.0524 60.4238 89.2577 60.4238 90.562V107.35C60.4241 108.655 61.1314 109.86 62.27 110.497ZM64.8112 91.9668L76.155 98.9565L64.8112 105.946V91.9668Z" fill="#E9F1FF"/>
<path d="M89.1741 121.213H68.0938C67.1806 118.557 64.659 116.642 61.6973 116.642C58.7352 116.642 56.2136 118.557 55.3001 121.213H52.5027C51.2912 121.213 50.309 122.196 50.3093 123.407C50.3093 124.619 51.2915 125.601 52.503 125.601H55.3004C56.2139 128.257 58.7355 130.171 61.6973 130.171C64.659 130.171 67.1803 128.256 68.0938 125.601H89.1741C90.3853 125.601 91.3678 124.619 91.3678 123.407C91.3678 122.196 90.3856 121.213 89.1741 121.213ZM61.6973 125.783C60.3866 125.783 59.3205 124.717 59.3205 123.406C59.3205 122.095 60.3866 121.029 61.6973 121.029C63.0076 121.029 64.0738 122.095 64.0738 123.406C64.0738 124.717 63.0076 125.783 61.6973 125.783Z" fill="#E9F1FF"/>
<path d="M146 106.229V90.8571C146 80.6389 137.686 72.3256 127.468 72.3256H116.272V64.564C121.277 61.4428 124.616 55.8907 124.616 49.5705V47.8539H128.12C133.047 47.8539 137.056 43.8456 137.056 38.9185C137.056 36.5827 136.154 34.4542 134.681 32.8604V25.2834C134.681 18.6827 131.757 12.4833 126.659 8.27459C125.725 7.50328 124.343 7.63549 123.571 8.56971C122.8 9.50394 122.932 10.8866 123.866 11.6579C127.951 15.03 130.294 19.9965 130.294 25.2834V30.2522C129.598 30.0776 128.87 29.9837 128.12 29.9837H124.557C123.941 23.3693 118.361 18.174 111.588 18.174H90.5676C88.8743 18.174 87.4967 19.5517 87.4967 21.2449V29.9837H83.9912C83.2427 29.9837 82.5161 30.0773 81.8209 30.2516V8.98359C81.8209 7.2921 82.7054 5.79395 84.1865 4.97644C85.6683 4.15804 87.4087 4.20835 88.8389 5.10894L90.1423 5.93172C91.9019 7.04027 93.9327 7.62642 96.0147 7.62642H112.636C113.554 7.62642 114.467 7.69633 115.352 7.83439C116.549 8.02012 117.67 7.20202 117.857 6.00484C118.044 4.80767 117.225 3.68625 116.028 3.49964C114.92 3.32677 113.779 3.23932 112.636 3.23932H96.0147C94.7616 3.23932 93.5396 2.88657 92.4825 2.22086L91.1789 1.39778C88.3745 -0.368292 84.9678 -0.466569 82.066 1.13571C79.1653 2.73711 77.4332 5.67111 77.4332 8.98388V32.8578C75.9587 34.4519 75.0555 36.5815 75.0555 38.9188C75.0555 43.8459 79.0638 47.8542 83.9906 47.8542H87.4961V49.5708C87.4961 55.8916 90.8361 61.4446 95.8418 64.5655V67.6226H63.9741C64.8761 64.5974 65.3632 61.3916 65.3632 58.0721C65.3632 39.8223 50.7022 24.9748 32.6817 24.9748C14.6612 24.9748 0 39.8223 0 58.0721C0 76.3223 14.6609 91.1695 32.6814 91.1695C33.4852 91.1695 34.282 91.1388 35.0711 91.0806V132.942C35.0711 136.025 37.581 138.534 40.6662 138.534H57.3684V141.625C57.3684 144.59 59.7809 147.002 62.7462 147.002H69.7307C72.696 147.002 75.1084 144.59 75.1084 141.625V138.534H78.3431V147.563C78.3431 148.774 79.3253 149.756 80.5368 149.756H128.594C129.806 149.756 130.788 148.774 130.788 147.563V139.985C130.788 138.773 129.806 137.791 128.594 137.791C127.383 137.791 126.4 138.773 126.4 139.985V145.369H82.7308V138.534H101.011C104.096 138.534 106.606 136.025 106.606 132.942V120.436H126.401V129.748C126.401 130.959 127.383 131.942 128.595 131.942C129.806 131.942 130.788 130.959 130.788 129.748V120.436H134.699C136.841 120.436 138.846 119.837 140.554 118.797C143.817 116.813 146 113.224 146 109.134V106.229H146ZM132.668 38.9188C132.668 41.4266 130.628 43.4668 128.12 43.4668H124.616V34.3708H128.12C130.628 34.3708 132.668 36.411 132.668 38.9188ZM83.9912 43.4668C81.4833 43.4668 79.4432 41.4263 79.4432 38.9188C79.4432 36.4113 81.4833 34.3708 83.9912 34.3708H87.4967V43.4668H83.9912ZM91.8838 49.5705V45.6886C91.8838 45.6792 91.8853 45.6698 91.8853 45.6602C91.8853 45.6505 91.8841 45.6415 91.8838 45.6318V32.2052C91.8838 32.1959 91.8853 32.1865 91.8853 32.1768C91.8853 32.1672 91.8841 32.1581 91.8838 32.1485V22.5605H111.588C116.353 22.5605 120.228 26.4364 120.228 31.2005V49.5699C120.228 56.8887 114.274 62.843 106.955 62.843H105.157C97.8381 62.8436 91.8838 56.8893 91.8838 49.5705ZM100.23 66.5261C101.795 66.9818 103.447 67.2307 105.157 67.2307H106.956C108.666 67.2307 110.319 66.9815 111.885 66.5255V75.9464C111.885 78.5493 109.767 80.6669 107.165 80.6669H106.606V73.2145C106.606 70.131 104.096 67.6223 101.011 67.6223H100.23V66.5261ZM104.429 116.049C104.423 116.049 104.418 116.048 104.412 116.048C104.406 116.048 104.401 116.049 104.395 116.049H101.81C100.03 116.049 98.5813 114.601 98.5813 112.821V108.425H106.205V116.049H104.429V116.049ZM101.01 72.0097C101.676 72.0097 102.218 72.5503 102.218 73.2148V77.6844C101.829 77.5984 101.426 77.5495 101.01 77.5495H59.0874C60.3334 75.8218 61.4183 73.9677 62.3195 72.01H101.01V72.0097ZM4.3871 58.0721C4.3871 42.2412 17.0798 29.3619 32.6814 29.3619C48.283 29.3619 60.9758 42.2412 60.9758 58.0721C60.9758 73.903 48.283 86.7824 32.6814 86.7824C17.0798 86.7824 4.3871 73.903 4.3871 58.0721ZM70.7216 141.625C70.7216 142.171 70.2773 142.616 69.7309 142.616H62.7465C62.2001 142.616 61.7558 142.171 61.7558 141.625V138.534H70.7213L70.7216 141.625ZM102.219 132.942C102.219 133.606 101.677 134.147 101.011 134.147H40.6665C40.0005 134.147 39.4585 133.606 39.4585 132.942V90.452C45.5292 89.1504 50.983 86.1377 55.3028 81.9366H101.01C101.676 81.9366 102.218 82.4772 102.218 83.1417V104.038H90.3821C89.1706 104.038 88.1884 105.021 88.1884 106.232C88.1884 107.444 89.1706 108.426 90.3821 108.426H94.1942V112.821C94.1942 117.021 97.6105 120.437 101.81 120.437H102.219V132.942ZM140.93 112.13C139.811 114.446 137.438 116.049 134.698 116.049C133.403 116.049 111.876 116.049 110.592 116.049V108.425H132.486C133.697 108.425 134.68 107.443 134.68 106.232C134.68 105.02 133.697 104.038 132.486 104.038H130.789V90.0978C130.789 88.8863 129.807 87.9041 128.595 87.9041C127.384 87.9041 126.401 88.8863 126.401 90.0978V104.038H106.605V85.054H107.164C111.928 85.054 115.846 81.3771 116.237 76.7124H127.468C135.267 76.7124 141.612 83.0575 141.612 90.8568V109.134C141.613 109.73 141.556 110.881 140.93 112.13Z" fill="#E9F1FF"/>
<path d="M55.1721 58.3581C56.4082 57.9849 57.2389 56.8641 57.2389 55.5686C57.2389 54.2735 56.4085 53.1523 55.1721 52.7785L33.7599 46.3118C33.0547 46.0989 32.3085 46.0989 31.603 46.3118L10.1905 52.7788C8.95441 53.1523 8.12402 54.2735 8.12402 55.5686C8.12402 56.1767 8.30917 56.7453 8.63121 57.2171V64.4648C8.63121 65.6763 9.6134 66.6585 10.8249 66.6585C12.0364 66.6585 13.0186 65.6763 13.0186 64.4648V59.2122L16.344 60.2163V70.322C16.344 72.0413 17.5005 73.5423 19.1557 73.9717L31.3573 77.142C31.7905 77.2549 32.2363 77.3111 32.682 77.3111C33.1275 77.3111 33.5727 77.2549 34.0056 77.142L46.2072 73.972C47.8633 73.542 49.0198 72.0413 49.0198 70.322V60.216L55.1721 58.3581ZM32.6815 50.569L49.2348 55.5683L32.6815 60.5676L16.1281 55.5683L32.6815 50.569ZM44.6324 69.8484L32.9014 72.8965C32.7575 72.9339 32.6057 72.9336 32.4612 72.8965L20.7311 69.8487V61.5419L31.603 64.8254C31.9558 64.9319 32.3188 64.9851 32.6815 64.9851C33.0444 64.9851 33.4071 64.9319 33.7599 64.8254L44.6324 61.5416V69.8484Z" fill="#E9F1FF"/>
</svg>
