<svg width="59" height="64" viewBox="0 0 59 64" fill="none" xmlns="http://www.w3.org/2000/svg">
<path d="M46.1274 31.4317H50.5916C51.6009 31.4317 52.422 30.6106 52.422 29.6014V25.1371C52.422 24.1279 51.6009 23.3067 50.5916 23.3067H46.1274C45.1181 23.3067 44.297 24.1279 44.297 25.1371V29.6014C44.297 30.6106 45.1181 31.4317 46.1274 31.4317ZM46.172 25.1817H50.547V29.5567H46.172V25.1817ZM46.1274 43.3068H50.5916C51.6009 43.3068 52.422 42.4856 52.422 41.4764V37.0121C52.422 36.0029 51.6009 35.1818 50.5916 35.1818H46.1274C45.1181 35.1818 44.297 36.0029 44.297 37.0121V41.4764C44.297 42.4856 45.1181 43.3068 46.1274 43.3068ZM46.172 37.0568H50.547V41.4318H46.172V37.0568ZM33.3879 31.4317H37.8521C38.8614 31.4317 39.6825 30.6106 39.6825 29.6014V25.1371C39.6825 24.1279 38.8614 23.3067 37.8521 23.3067H33.3879C32.3786 23.3067 31.5575 24.1279 31.5575 25.1371V29.6014C31.5575 30.6106 32.3786 31.4317 33.3879 31.4317ZM33.4325 25.1817H37.8075V29.5567H33.4325V25.1817ZM12.3731 46.5H7.90886C6.89961 46.5 6.07849 47.3211 6.07849 48.3304V52.7946C6.07849 53.8039 6.89961 54.625 7.90886 54.625H12.3731C13.3824 54.625 14.2035 53.8039 14.2035 52.7946V48.3304C14.2035 47.3211 13.3824 46.5 12.3731 46.5ZM12.3285 52.75H7.95349V48.375H12.3285V52.75ZM12.3731 23.3067H7.90886C6.89961 23.3067 6.07849 24.1279 6.07849 25.1371V29.6014C6.07849 30.6106 6.89961 31.4317 7.90886 31.4317H12.3731C13.3824 31.4317 14.2035 30.6106 14.2035 29.6014V25.1371C14.2035 24.1278 13.3824 23.3067 12.3731 23.3067ZM12.3285 29.5567H7.95349V25.1817H12.3285V29.5567ZM33.3879 43.0284H37.8521C38.8614 43.0284 39.6825 42.2073 39.6825 41.198V36.7337C39.6825 35.7245 38.8614 34.9034 37.8521 34.9034H33.3879C32.3786 34.9034 31.5575 35.7245 31.5575 36.7337V41.198C31.5575 42.2073 32.3786 43.0284 33.3879 43.0284ZM33.4325 36.7784H37.8075V41.1534H33.4325V36.7784ZM53.3531 4.28425H49.3449V2.85087C49.3449 1.27887 48.066 0 46.494 0H46.0635C44.4916 0 43.2127 1.27887 43.2127 2.85087V4.28425H15.2877V2.85087C15.2877 1.27887 14.0089 0 12.4369 0H12.0064C10.4344 0 9.15549 1.27887 9.15549 2.85087V4.28425H5.14736C2.55924 4.28425 0.453613 6.38987 0.453613 8.978V59.3125C0.453613 61.8973 2.55636 64 5.14111 64H53.3596C55.9444 64 58.0471 61.8973 58.0471 59.3125V8.978C58.047 6.38987 55.9414 4.28425 53.3531 4.28425ZM45.0877 2.85087C45.0877 2.31275 45.5255 1.875 46.0636 1.875H46.4941C47.0322 1.875 47.47 2.31275 47.47 2.85087V4.28425H45.0877V2.85087ZM11.0306 2.85087C11.0306 2.31275 11.4684 1.875 12.0065 1.875H12.437C12.9751 1.875 13.4129 2.31275 13.4129 2.85087V4.28425H11.0307V2.85087H11.0306ZM56.172 59.3125C56.172 60.8634 54.9104 62.125 53.3595 62.125H5.14099C3.59011 62.125 2.32849 60.8634 2.32849 59.3125V59.3066C3.11399 59.8985 4.09036 60.25 5.14736 60.25H43.1577C44.4115 60.25 45.5902 59.7617 46.4767 58.8751L56.172 49.1799V59.3125ZM45.5201 57.1801C45.5936 56.8768 45.6336 56.5604 45.6336 56.2347V49.9767C45.6336 48.7967 46.5937 47.8366 47.7739 47.8366H54.0317C54.3574 47.8366 54.6737 47.7966 54.9771 47.7231L45.5201 57.1801ZM56.172 17.6817H16.2252C15.7075 17.6817 15.2877 18.1015 15.2877 18.6192C15.2877 19.137 15.7075 19.5567 16.2252 19.5567H56.172V43.8215C56.172 45.0016 55.2119 45.9618 54.0317 45.9618H47.7739C45.5599 45.9618 43.7586 47.763 43.7586 49.9769V56.2349C43.7586 57.415 42.7985 58.3751 41.6185 58.3751H5.14736C3.59311 58.3751 2.32861 57.1106 2.32861 55.5563V19.5567H12.4752C12.993 19.5567 13.4127 19.137 13.4127 18.6192C13.4127 18.1015 12.993 17.6817 12.4752 17.6817H2.32849V8.978C2.32849 7.42375 3.59299 6.15925 5.14724 6.15925H9.15549V8.91575C9.15549 10.4877 10.4344 11.7666 12.0064 11.7666C12.5241 11.7666 12.9439 11.3469 12.9439 10.8291C12.9439 10.3114 12.5241 9.89163 12.0064 9.89163C11.4682 9.89163 11.0305 9.45387 11.0305 8.91575V6.15925H43.2127V8.91575C43.2127 10.4877 44.4916 11.7666 46.0636 11.7666C46.5814 11.7666 47.0011 11.3469 47.0011 10.8291C47.0011 10.3114 46.5814 9.89163 46.0636 9.89163C45.5255 9.89163 45.0877 9.45387 45.0877 8.91575V6.15925H53.3532C54.9075 6.15925 56.172 7.42375 56.172 8.978V17.6817ZM12.3731 34.9034H7.90886C6.89961 34.9034 6.07849 35.7245 6.07849 36.7337V41.198C6.07849 42.2073 6.89961 43.0284 7.90886 43.0284H12.3731C13.3824 43.0284 14.2035 42.2073 14.2035 41.198V36.7337C14.2035 35.7244 13.3824 34.9034 12.3731 34.9034ZM12.3285 41.1534H7.95349V36.7784H12.3285V41.1534ZM20.6484 31.4317H25.1126C26.1219 31.4317 26.943 30.6106 26.943 29.6014V25.1371C26.943 24.1279 26.1219 23.3067 25.1126 23.3067H20.6484C19.6391 23.3067 18.818 24.1279 18.818 25.1371V29.6014C18.818 30.6106 19.6391 31.4317 20.6484 31.4317ZM20.693 25.1817H25.068V29.5567H20.693V25.1817ZM33.4314 52.75C33.4081 52.2529 32.9977 51.8571 32.4949 51.8571C31.9771 51.8571 31.5574 52.2769 31.5574 52.7946C31.5574 53.8039 32.3785 54.625 33.3877 54.625H37.852C38.8612 54.625 39.6824 53.8039 39.6824 52.7946V48.3304C39.6824 47.3211 38.8612 46.5 37.852 46.5H33.3877C32.3785 46.5 31.5574 47.3211 31.5574 48.3304V49.6179C31.5574 50.1356 31.9771 50.5554 32.4949 50.5554C33.0126 50.5554 33.4324 50.1356 33.4324 49.6179V48.375H37.8074V52.75H33.4314ZM20.6484 43.0284H25.1126C26.1219 43.0284 26.943 42.2073 26.943 41.198V36.7337C26.943 35.7245 26.1219 34.9034 25.1126 34.9034H20.6484C19.6391 34.9034 18.818 35.7245 18.818 36.7337V41.198C18.818 42.2073 19.6391 43.0284 20.6484 43.0284ZM20.693 36.7784H25.068V41.1534H20.693V36.7784ZM20.6484 54.625H25.1126C26.1219 54.625 26.943 53.8039 26.943 52.7946V48.3304C26.943 47.3211 26.1219 46.5 25.1126 46.5H20.6484C19.6391 46.5 18.818 47.3211 18.818 48.3304V52.7946C18.818 53.8039 19.6391 54.625 20.6484 54.625ZM20.693 48.375H25.068V52.75H20.693V48.375Z" fill="#284773"/>
</svg>
