<svg width="67" height="67" viewBox="0 0 67 67" fill="none" xmlns="http://www.w3.org/2000/svg">
<path d="M64.9062 24.0781H61.2422C60.6008 22.1763 59.7648 20.3457 58.7475 18.6155L60.8883 16.4736C61.0846 16.2773 61.1949 16.0111 61.1949 15.7335C61.1949 15.4559 61.0846 15.1897 60.8883 14.9933L52.0067 6.11061C51.8103 5.91435 51.5441 5.8041 51.2665 5.8041C50.9889 5.8041 50.7227 5.91435 50.5264 6.11061L48.3855 8.25147C46.0266 6.85663 43.4823 5.80245 40.8281 5.12027V2.09375C40.8281 1.8161 40.7178 1.54982 40.5215 1.3535C40.3252 1.15717 40.0589 1.04688 39.7812 1.04688H27.2188C26.9411 1.04688 26.6748 1.15717 26.4785 1.3535C26.2822 1.54982 26.1719 1.8161 26.1719 2.09375V5.12027C23.5177 5.80245 20.9734 6.85663 18.6145 8.25147L16.4736 6.11061C16.2773 5.91435 16.0111 5.8041 15.7335 5.8041C15.4559 5.8041 15.1897 5.91435 14.9933 6.11061L6.11061 14.9933C5.91435 15.1897 5.8041 15.4559 5.8041 15.7335C5.8041 16.0111 5.91435 16.2773 6.11061 16.4736L8.25147 18.6155C7.23455 20.3458 6.39891 22.1763 5.75781 24.0781H2.09375C1.8161 24.0781 1.54982 24.1884 1.3535 24.3847C1.15717 24.5811 1.04688 24.8474 1.04688 25.125V43.9688C1.04688 44.2464 1.15717 44.5127 1.3535 44.709C1.54982 44.9053 1.8161 45.0156 2.09375 45.0156H6.566C7.0548 46.1736 7.6178 47.2989 8.25147 48.3845L6.11061 50.5264C5.91435 50.7227 5.8041 50.9889 5.8041 51.2665C5.8041 51.5441 5.91435 51.8103 6.11061 52.0067L14.9933 60.8894C15.1897 61.0856 15.4559 61.1959 15.7335 61.1959C16.0111 61.1959 16.2773 61.0856 16.4736 60.8894L18.6145 58.7485C20.9733 60.1435 23.5176 61.1977 26.1719 61.8797V64.9062C26.1719 65.1839 26.2822 65.4502 26.4785 65.6465C26.6748 65.8428 26.9411 65.9531 27.2188 65.9531H39.7812C40.0589 65.9531 40.3252 65.8428 40.5215 65.6465C40.7178 65.4502 40.8281 65.1839 40.8281 64.9062V61.8797C43.4823 61.1977 46.0267 60.1435 48.3855 58.7485L50.5264 60.8894C50.7227 61.0856 50.9889 61.1959 51.2665 61.1959C51.5441 61.1959 51.8103 61.0856 52.0067 60.8894L60.8894 52.0067C61.0856 51.8103 61.1959 51.5441 61.1959 51.2665C61.1959 50.9889 61.0856 50.7227 60.8894 50.5264L58.7485 48.3845C59.3822 47.2989 59.9452 46.1736 60.434 45.0156H64.9062C65.1839 45.0156 65.4502 44.9053 65.6465 44.709C65.8428 44.5127 65.9531 44.2464 65.9531 43.9688V25.125C65.9531 24.8474 65.8428 24.5811 65.6465 24.3847C65.4502 24.1884 65.1839 24.0781 64.9062 24.0781ZM10.4593 19.0154C10.5859 18.8147 10.6406 18.5769 10.6144 18.3411C10.5881 18.1052 10.4825 17.8853 10.3149 17.7173L8.33103 15.7335L15.7335 8.33103L17.7173 10.3149C17.8851 10.4827 18.105 10.5885 18.3409 10.6149C18.5768 10.6414 18.8146 10.5869 19.0154 10.4604C21.6084 8.82433 24.4611 7.6419 27.4512 6.96381C27.6825 6.91114 27.8891 6.78146 28.037 6.59601C28.185 6.41057 28.2656 6.18036 28.2656 5.94311V3.14062H38.7344V5.94311C38.7344 6.18036 38.815 6.41057 38.963 6.59601C39.1109 6.78146 39.3175 6.91114 39.5488 6.96381C42.5389 7.6419 45.3916 8.82433 47.9846 10.4604C48.1854 10.5869 48.4232 10.6414 48.6591 10.6149C48.895 10.5885 49.1148 10.4827 49.2827 10.3149L51.2665 8.33103L58.669 15.7335L56.6799 17.7173C56.5123 17.8853 56.4066 18.1052 56.3804 18.3411C56.3541 18.5769 56.4088 18.8147 56.5354 19.0154C57.5395 20.6117 58.3742 22.3085 59.026 24.0781H53.3519C51.5715 20.3197 48.7607 17.1438 45.2465 14.9199C41.7322 12.696 37.6588 11.5154 33.5 11.5154C29.3412 11.5154 25.2678 12.696 21.7535 14.9199C18.2393 17.1438 15.4285 20.3197 13.6481 24.0781H7.97405C8.62411 22.3087 9.45705 20.612 10.4593 19.0154ZM17.7969 28.2656H18.8438C19.1214 28.2656 19.3876 28.1552 19.5839 27.9589L23.4647 24.0781H30.3594V26.1719H25.125V28.2656H42.9219V30.3594H27.2188V32.4531H46.0625V34.5469H27.2188V36.6406H42.9219V38.7344H27.2188V40.8281H38.7344V42.9219H23.2783L19.3117 40.9328C19.1659 40.8622 19.0057 40.8263 18.8438 40.8281H17.7969V28.2656ZM49.2031 40.8281H48.1562C47.9943 40.8263 47.8341 40.8622 47.6883 40.9328L43.7217 42.9219H40.8281V40.8281H43.9688C44.2464 40.8281 44.5127 40.7178 44.709 40.5215C44.9053 40.3252 45.0156 40.0589 45.0156 39.7812V36.6406H47.1094C47.387 36.6406 47.6533 36.5303 47.8496 36.334C48.046 36.1377 48.1562 35.8714 48.1562 35.5938V31.4062C48.1562 31.1286 48.046 30.8623 47.8496 30.666C47.6533 30.4697 47.387 30.3594 47.1094 30.3594H45.0156V27.2188C45.0156 26.9411 44.9053 26.6748 44.709 26.4785C44.5127 26.2822 44.2464 26.1719 43.9688 26.1719H35.5938V24.0781H43.5353L47.4161 27.9589C47.6124 28.1552 47.8786 28.2656 48.1562 28.2656H49.2031V40.8281ZM17.7969 43.9688V42.9219H18.5967L22.5633 44.9109C22.7091 44.9816 22.8693 45.0174 23.0312 45.0156H43.9688C44.1307 45.0174 44.2909 44.9816 44.4367 44.9109L48.4033 42.9219H49.2031V43.9688C49.2042 44.1633 49.2599 44.3536 49.3639 44.518C49.468 44.6824 49.6161 44.8142 49.7915 44.8984C47.9598 47.5205 45.5223 49.6617 42.686 51.1401C39.8497 52.6186 36.6985 53.3906 33.5 53.3906C30.3015 53.3906 27.1503 52.6186 24.314 51.1401C21.4777 49.6617 19.0402 47.5205 17.2085 44.8984C17.3839 44.8142 17.532 44.6824 17.6361 44.518C17.7401 44.3536 17.7958 44.1633 17.7969 43.9688ZM50.25 24.0781C49.9724 24.0781 49.7061 24.1884 49.5097 24.3847C49.3134 24.5811 49.2031 24.8474 49.2031 25.125V26.1719H48.5897L44.7089 22.2911C44.5126 22.0948 44.2464 21.9844 43.9688 21.9844H34.5469C34.2692 21.9844 34.0029 22.0947 33.8066 22.291C33.6103 22.4873 33.5 22.7536 33.5 23.0312V26.1719H32.4531V23.0312C32.4531 22.7536 32.3428 22.4873 32.1465 22.291C31.9502 22.0947 31.6839 21.9844 31.4062 21.9844H23.0312C22.7536 21.9844 22.4874 22.0948 22.2911 22.2911L18.4103 26.1719H17.7969V25.125C17.7969 24.8474 17.6866 24.5811 17.4903 24.3847C17.2939 24.1884 17.0276 24.0781 16.75 24.0781H15.9826C17.6847 20.9137 20.2122 18.2695 23.2965 16.4263C26.3809 14.5831 29.9069 13.6098 33.5 13.6098C37.0931 13.6098 40.6191 14.5831 43.7035 16.4263C46.7878 18.2695 49.3153 20.9137 51.0174 24.0781H50.25ZM3.14062 26.1719H15.7031V42.9219H3.14062V26.1719ZM56.6851 49.2827L58.6742 51.2665L51.2718 58.669L49.2879 56.6799C49.1201 56.5121 48.9002 56.4063 48.6643 56.3798C48.4285 56.3534 48.1906 56.4079 47.9898 56.5344C45.3968 58.1704 42.5441 59.3529 39.5541 60.031C39.3228 60.0836 39.1162 60.2133 38.9682 60.3988C38.8202 60.5842 38.7396 60.8144 38.7396 61.0517V63.8594H28.2656V61.0569C28.2656 60.8196 28.185 60.5894 28.037 60.404C27.8891 60.2185 27.6825 60.0889 27.4512 60.0362C24.4611 59.3581 21.6084 58.1757 19.0154 56.5396C18.8146 56.4131 18.5768 56.3586 18.3409 56.3851C18.105 56.4115 17.8851 56.5173 17.7173 56.6851L15.7335 58.6742L8.33103 51.2665L10.3149 49.2827C10.4825 49.1147 10.5881 48.8948 10.6144 48.6589C10.6406 48.4231 10.5859 48.1853 10.4593 47.9846C9.86787 47.0289 9.33643 46.0373 8.86808 45.0156H14.784C16.7489 48.2147 19.501 50.8567 22.7775 52.6894C26.0541 54.5222 29.7457 55.4845 33.5 55.4845C37.2543 55.4845 40.9459 54.5222 44.2225 52.6894C47.499 50.8567 50.2511 48.2147 52.216 45.0156H58.1319C57.6636 46.0373 57.1321 47.0289 56.5407 47.9846C56.4141 48.1853 56.3594 48.4231 56.3856 48.6589C56.4119 48.8948 56.5175 49.1147 56.6851 49.2827ZM63.8594 42.9219H51.2969V26.1719H63.8594V42.9219Z" fill="#284773"/>
</svg>
