<svg width="64" height="64" viewBox="0 0 64 64" fill="none" xmlns="http://www.w3.org/2000/svg">
<g clip-path="url(#clip0)">
<path d="M63.8824 15.1764C63.6622 14.3573 63.1247 13.6589 62.3895 13.2356C61.6536 12.8101 60.7788 12.695 59.9581 12.9153C59.1384 13.1361 58.4401 13.673 58.0168 14.4083L57.4835 15.3363C56.9768 15.0452 56.3295 15.2165 56.0332 15.7206L53.3243 20.338L52.3964 19.8048C52.1506 19.6626 51.8579 19.6241 51.584 19.698C51.3096 19.7725 51.0763 19.9527 50.9352 20.1995C50.6461 20.7093 50.8222 21.3571 51.3299 21.6498L52.2578 22.183L43.1927 37.8923L40.953 43.8757L39.8865 45.8696C39.2621 46.9559 39.3288 48.3062 40.0573 49.3253L37.6577 52.2685L36.986 50.5839C36.6829 49.833 35.9815 49.3185 35.1748 49.2555C34.3677 49.192 33.5944 49.5908 33.1783 50.285L32.7945 50.9354L32.4321 46.6695C32.3487 45.6603 31.5671 44.8489 30.5621 44.7271C29.5565 44.6058 28.6046 45.2083 28.2833 46.1685L25.6598 54.039C25.4765 54.5957 25.7764 55.1956 26.3315 55.3831C26.4357 55.4315 26.5476 55.4607 26.6622 55.468C27.1205 55.4695 27.5287 55.1774 27.6756 54.7431L30.2882 46.8726L30.6615 51.202C30.7386 52.1258 31.4025 52.8939 32.3055 53.1033C33.2085 53.3126 34.1427 52.9148 34.6181 52.1196L35.0129 51.4686L35.6742 53.1434C35.9549 53.849 36.5897 54.3525 37.3411 54.4645C38.0926 54.5765 38.8466 54.2801 39.3215 53.687L41.8065 50.5412C42.0815 50.6131 42.3647 50.649 42.6491 50.648C43.7921 50.6568 44.8534 50.0548 45.4324 49.0691L46.4989 47.2881L50.5623 42.3504L59.7232 26.449L60.6512 26.9822C60.8986 27.1238 61.0787 27.3577 61.1522 27.6331C61.2261 27.9065 61.1876 28.1981 61.0459 28.4434L56.78 35.8343C56.6191 36.077 56.5644 36.3749 56.629 36.6592C56.6935 36.943 56.8711 37.1883 57.1211 37.3377C57.3669 37.4804 57.6595 37.5189 57.9334 37.445C58.2079 37.3705 58.4412 37.1904 58.5823 36.9435L62.8482 29.5526C63.2737 28.8168 63.3888 27.9419 63.168 27.1212C62.9472 26.3016 62.4103 25.6033 61.675 25.1799L60.747 24.6467L63.4132 20.0287C63.7043 19.522 63.533 18.8752 63.0294 18.5784L63.5627 17.6505C63.9996 16.9032 64.1152 16.0106 63.8824 15.1764ZM59.8618 15.4748C60.0029 15.2279 60.2372 15.0473 60.5127 14.9738C60.7866 14.9061 61.0761 14.9441 61.323 15.0806C61.5703 15.2217 61.7505 15.456 61.8244 15.731C61.8921 16.0049 61.8541 16.2944 61.7177 16.5413L61.1844 17.4692L59.3285 16.4027L59.8618 15.4748ZM45.3257 45.2515L44.7925 44.9422L43.2141 44.0246L44.7284 39.9722L48.0877 41.913L45.3257 45.2515ZM42.1262 48.3332C41.6758 48.0192 41.5373 47.4152 41.8065 46.9361L42.3397 46.0086L44.1952 47.0751L43.6619 47.9922C43.5125 48.2515 43.2615 48.4358 42.9693 48.5009C42.6772 48.5655 42.3715 48.5051 42.1262 48.3332ZM49.3037 40.1643L45.6137 38.0314L54.1455 23.2495L57.8355 25.3825L49.3037 40.1643ZM58.902 23.5375L55.212 21.4045L57.345 17.7145L61.035 19.8475L58.902 23.5375Z" fill="#284773"/>
<path d="M16.8288 47.7999L13.0539 51.5649L10.7929 49.3038C10.3768 48.8903 9.70503 48.8903 9.28896 49.3038C9.08691 49.5043 8.97339 49.7766 8.97339 50.061C8.97339 50.3453 9.08691 50.6182 9.28896 50.8181L11.55 53.0792C11.95 53.476 12.4905 53.6984 13.0539 53.6978C13.6205 53.701 14.1657 53.4786 14.5683 53.0792L18.3327 49.3038C18.6952 48.8804 18.6707 48.2498 18.277 47.8561C17.8828 47.4619 17.2522 47.4374 16.8288 47.7999Z" fill="#284773"/>
<path d="M4.26587 50.6688C4.26587 55.6758 8.32455 59.734 13.331 59.734C18.3374 59.734 22.3961 55.6758 22.3961 50.6688C22.3961 50.0799 21.9186 49.6024 21.3296 49.6024C20.7407 49.6024 20.2631 50.0799 20.2631 50.6688C20.2631 54.4974 17.1595 57.601 13.331 57.601C9.50248 57.601 6.39884 54.4974 6.39884 50.6688C6.39884 46.8403 9.50248 43.7367 13.331 43.7367C14.8318 43.7325 16.2925 44.2194 17.4902 45.1234C17.9615 45.477 18.6301 45.3812 18.9832 44.9099C19.3367 44.4386 19.2414 43.7705 18.7702 43.4169C16.0232 41.3569 12.3478 41.0257 9.277 42.5608C6.20564 44.0965 4.26587 47.2356 4.26587 50.6688Z" fill="#284773"/>
<path d="M38.3935 8.54264C38.9825 8.54264 39.46 8.06564 39.46 7.47615C39.46 6.88719 38.9825 6.40967 38.3935 6.40967H10.6649C10.0759 6.40967 9.59839 6.88719 9.59839 7.47615V11.7421C9.59839 12.3316 10.0759 12.8086 10.6649 12.8086H38.3935C38.9825 12.8086 39.46 12.3316 39.46 11.7421C39.46 11.1531 38.9825 10.6756 38.3935 10.6756H11.7314V8.54264H38.3935Z" fill="#284773"/>
<path d="M13.8643 14.9414C13.2754 14.9414 12.7979 15.4189 12.7979 16.0079C12.7979 16.5974 13.2754 17.0744 13.8643 17.0744H35.194C35.783 17.0744 36.2605 16.5974 36.2605 16.0079C36.2605 15.4189 35.783 14.9414 35.194 14.9414H13.8643Z" fill="#284773"/>
<path d="M41.5929 22.4067H18.1302C17.5412 22.4067 17.0637 22.8843 17.0637 23.4732C17.0637 24.0627 17.5412 24.5397 18.1302 24.5397H41.5929C42.1818 24.5397 42.6594 24.0627 42.6594 23.4732C42.6594 22.8843 42.1818 22.4067 41.5929 22.4067Z" fill="#284773"/>
<path d="M30.928 29.8722C30.928 29.2832 30.4505 28.8057 29.8615 28.8057H8.53182C7.94285 28.8057 7.46533 29.2832 7.46533 29.8722C7.46533 30.4616 7.94285 30.9386 8.53182 30.9386H29.8615C30.4505 30.9386 30.928 30.4616 30.928 29.8722Z" fill="#284773"/>
<path d="M41.5929 28.8057H34.1275C33.5386 28.8057 33.061 29.2832 33.061 29.8722C33.061 30.4616 33.5386 30.9386 34.1275 30.9386H41.5929C42.1819 30.9386 42.6594 30.4616 42.6594 29.8722C42.6594 29.2832 42.1819 28.8057 41.5929 28.8057Z" fill="#284773"/>
<path d="M19.1967 36.2711C19.7856 36.2711 20.2632 35.7941 20.2632 35.2047C20.2632 34.6157 19.7856 34.1382 19.1967 34.1382H8.53182C7.94285 34.1382 7.46533 34.6157 7.46533 35.2047C7.46533 35.7941 7.94285 36.2711 8.53182 36.2711H19.1967Z" fill="#284773"/>
<path d="M23.4627 36.2711H30.9281C31.5171 36.2711 31.9946 35.7941 31.9946 35.2047C31.9946 34.6157 31.5171 34.1382 30.9281 34.1382H23.4627C22.8738 34.1382 22.3962 34.6157 22.3962 35.2047C22.3962 35.7941 22.8738 36.2711 23.4627 36.2711Z" fill="#284773"/>
<path d="M47.9918 49.069C47.4029 49.069 46.9253 49.5466 46.9253 50.1355V60.8004C46.9253 61.3899 46.4478 61.8669 45.8589 61.8669H3.19945C2.61049 61.8669 2.13297 61.3899 2.13297 60.8004V3.2102C2.13297 2.62123 2.61049 2.14371 3.19945 2.14371H45.8589C46.4478 2.14371 46.9253 2.62123 46.9253 3.2102V23.2391C46.9253 23.828 47.4029 24.3056 47.9918 24.3056C48.5808 24.3056 49.0583 23.828 49.0583 23.2391V3.2102C49.0583 1.44331 47.6257 0.0107422 45.8589 0.0107422H3.19945C1.43257 0.0107422 0 1.44331 0 3.2102V60.8004C0 62.5678 1.43257 63.9998 3.19945 63.9998H45.8589C47.6257 63.9998 49.0583 62.5678 49.0583 60.8004V50.1355C49.0583 49.5466 48.5808 49.069 47.9918 49.069Z" fill="#284773"/>
</g>
<defs>
<clipPath id="clip0">
<rect width="64" height="64" fill="white"/>
</clipPath>
</defs>
</svg>
