<svg width="65" height="65" viewBox="0 0 65 65" fill="none" xmlns="http://www.w3.org/2000/svg">
<path d="M39.3037 58.0409L35.8051 57.0417V56.7661C37.0911 55.7971 37.8691 54.2727 37.8691 52.6597V50.8094C37.8691 48.0364 35.8041 45.6847 33.1672 45.4554C31.7215 45.33 30.2848 45.8177 29.2231 46.7908C28.1589 47.7673 27.5491 49.1541 27.5491 50.5958V52.6597C27.5491 54.2727 28.3272 55.7971 29.6131 56.7661V57.0417L26.1145 58.0409C23.9205 58.6683 22.3892 60.699 22.3892 62.9797V64.0117H43.0291V62.9797C43.0291 60.699 41.4977 58.6683 39.3037 58.0409ZM24.6336 61.9477C24.9621 61.0346 25.7144 60.302 26.6824 60.0263L31.6771 58.5983V55.6217L31.1642 55.3234C30.1931 54.758 29.6131 53.7623 29.6131 52.6597V50.5958C29.6131 49.73 29.9795 48.8981 30.6184 48.3131C31.2644 47.72 32.1024 47.4358 32.9898 47.5124C34.5675 47.6494 35.8051 49.0976 35.8051 50.8094V52.6597C35.8051 53.7623 35.2251 54.758 34.2541 55.3234L33.7411 55.6217V58.5983L38.7358 60.0263C39.7038 60.303 40.4561 61.0356 40.7847 61.9477H24.6336Z" fill="#284773"/>
<path d="M60.9756 58.0409L57.477 57.0417V56.766C58.7629 55.797 59.541 54.2727 59.541 52.6597V50.8104C59.541 48.0364 57.476 45.6847 54.839 45.4564C53.3964 45.3309 51.9567 45.8187 50.895 46.7923C49.8307 47.7673 49.221 49.1541 49.221 50.5957V52.6597C49.221 54.2727 49.999 55.797 51.285 56.766V57.0417L47.7864 58.0409C45.5924 58.6683 44.061 60.699 44.061 62.9797V64.0117H64.701V62.9797C64.701 60.699 63.1696 58.6683 60.9756 58.0409ZM46.3054 61.9477C46.634 61.0346 47.3863 60.3019 48.3543 60.0263L53.349 58.5982V55.6217L52.836 55.3234C51.865 54.758 51.285 53.7623 51.285 52.6597V50.5957C51.285 49.73 51.6513 48.8981 52.2903 48.313C52.9363 47.7199 53.7733 47.4357 54.6617 47.5123C56.2394 47.6494 57.477 49.0986 57.477 50.8104V52.6597C57.477 53.7623 56.897 54.758 55.926 55.3234L55.413 55.6217V58.5982L60.4077 60.0263C61.3757 60.3029 62.128 61.0356 62.4566 61.9477H46.3054Z" fill="#284773"/>
<path d="M17.6318 58.0409L14.1332 57.0417V56.766C15.4192 55.797 16.1972 54.2727 16.1972 52.6597V50.8104C16.1972 48.0364 14.1322 45.6847 11.4953 45.4564C10.0516 45.3309 8.61296 45.8187 7.55124 46.7923C6.48699 47.7673 5.87727 49.1541 5.87727 50.5957V52.6597C5.87727 54.2727 6.65529 55.797 7.94126 56.766V57.0417L4.44265 58.0409C2.24865 58.6683 0.717285 60.699 0.717285 62.9797V64.0117H21.3572V62.9797C21.3572 60.699 19.8258 58.6683 17.6318 58.0409ZM2.96168 61.9477C3.29022 61.0346 4.04255 60.3019 5.01055 60.0263L10.0052 58.5982V55.6217L9.49228 55.3234C8.52125 54.758 7.94126 53.7623 7.94126 52.6597V50.5957C7.94126 49.73 8.3076 48.8981 8.94655 48.313C9.59255 47.7199 10.4305 47.4357 11.3179 47.5123C12.8956 47.6494 14.1332 49.0986 14.1332 50.8104V52.6597C14.1332 53.7623 13.5532 54.758 12.5822 55.3234L12.0692 55.6217V58.5982L17.0639 60.0263C18.0319 60.3029 18.7843 61.0356 19.1128 61.9477H2.96168Z" fill="#284773"/>
<path d="M29.6133 37.8177L39.1446 33.0518L29.6133 28.2864V37.8177ZM31.6773 31.6258L34.5299 33.0518L31.6773 34.4784V31.6258Z" fill="#284773"/>
<path d="M62.6371 4.15593H41.2388L35.1486 0.67647C33.6656 -0.172105 31.7512 -0.172105 30.2683 0.67647L24.1796 4.15593H2.78128C1.64296 4.15593 0.717285 5.08211 0.717285 6.21992V9.31591C0.717285 10.4542 1.64296 11.3799 2.78128 11.3799V43.3718H4.84527V11.3799H14.1196V9.31591H2.78128V6.21992H20.5676L17.6132 7.90851C16.7399 8.40687 16.1972 9.34211 16.1972 10.3479C16.1972 11.3542 16.7399 12.2895 17.6132 12.7878L20.3252 14.3378V23.2479L20.7379 23.5578C20.8473 23.6394 22.4865 24.8372 25.4232 25.7674C23.5049 27.6837 22.3892 30.2804 22.3892 33.0518C22.3892 38.7424 27.0186 43.3718 32.7092 43.3718C38.3998 43.3718 43.0291 38.7424 43.0291 33.0518C43.0291 30.2788 41.9135 27.6827 39.9951 25.7674C42.9319 24.8372 44.5711 23.6404 44.6804 23.5578L45.0931 23.2479V14.3378L47.8051 12.7878C48.3645 12.4688 48.7661 11.9609 48.9984 11.3799H50.2531C50.8215 11.3799 51.2851 11.8425 51.2851 12.4119V18.6039H50.5071L48.2294 26.5772L48.1891 26.8598C48.1891 29.1365 50.0405 30.9878 52.3171 30.9878C54.5937 30.9878 56.4451 29.1365 56.4451 26.8598L54.1271 18.6039H53.3491V12.4119C53.3491 10.7052 51.9598 9.31591 50.2531 9.31591H48.9984C48.7661 8.73491 48.3635 8.22748 47.8051 7.90851L44.8507 6.21992H62.6371V9.31591H55.4131V11.3799H60.5731V43.3718H62.6371V11.3799C63.7754 11.3799 64.7011 10.4542 64.7011 9.31591V6.21992C64.7011 5.08211 63.7754 4.15593 62.6371 4.15593ZM54.3771 26.9899C54.31 28.0687 53.4121 28.9238 52.3171 28.9238C51.2221 28.9238 50.3242 28.0687 50.2571 26.9899L52.0631 20.6679H52.5701L54.3771 26.9899ZM40.9651 33.0518C40.9651 37.6041 37.2614 41.3078 32.7092 41.3078C28.1569 41.3078 24.4532 37.6041 24.4532 33.0518C24.4532 30.3988 25.7246 27.9448 27.8576 26.3897C29.2821 26.6724 30.9002 26.8598 32.7092 26.8598C34.5172 26.8598 36.1362 26.6724 37.5608 26.3907C39.6928 27.9448 40.9651 30.3988 40.9651 33.0518ZM43.0291 22.1761C41.8505 22.8941 38.2128 24.7959 32.7092 24.7959C27.2035 24.7959 23.5648 22.8931 22.3892 22.1761V15.5175L30.2698 20.0198C31.0105 20.4441 31.8545 20.6679 32.7092 20.6679C33.5638 20.6679 34.4078 20.4441 35.1486 20.0198L43.0291 15.5175V22.1761ZM46.1095 11.3799L34.1251 18.2285C33.2645 18.7208 32.1539 18.7208 31.2932 18.2285L18.6366 10.9964C18.4058 10.8629 18.2612 10.6155 18.2612 10.3479C18.2612 10.0808 18.4058 9.83292 18.6366 9.69989L31.2932 2.46785C31.7235 2.22195 32.2138 2.09194 32.7092 2.09194C33.2045 2.09194 33.6948 2.22195 34.1251 2.46785L46.1095 9.31591H32.7092V11.3799H46.1095Z" fill="#284773"/>
<path d="M6.90918 13.4438H14.1332V15.5078H6.90918V13.4438Z" fill="#284773"/>
<path d="M6.90918 17.5718H18.2611V19.6358H6.90918V17.5718Z" fill="#284773"/>
<path d="M6.90918 21.6997H18.2611V23.7637H6.90918V21.6997Z" fill="#284773"/>
<path d="M6.90918 25.8279H18.2611V27.8919H6.90918V25.8279Z" fill="#284773"/>
<path d="M45.093 41.3079H58.509V43.3719H45.093V41.3079Z" fill="#284773"/>
<path d="M45.093 37.1797H58.509V39.2437H45.093V37.1797Z" fill="#284773"/>
<path d="M45.093 33.0518H58.509V35.1158H45.093V33.0518Z" fill="#284773"/>
</svg>
